<?xml version="1.0" encoding="UTF-8"?>
<svg version="1.1" xmlns="http://www.w3.org/2000/svg" width="1920" height="292">
<path d="M0 0 C633.6 0 1267.2 0 1920 0 C1920 56.76 1920 113.52 1920 172 C1919.01 172.33 1918.02 172.66 1917 173 C1916.34 172.67 1915.68 172.34 1915 172 C1915 172.66 1915 173.32 1915 174 C1913.63875 174.2165625 1913.63875 174.2165625 1912.25 174.4375 C1909.13935446 174.90623358 1909.13935446 174.90623358 1906.75 175.6875 C1906.1725 175.790625 1905.595 175.89375 1905 176 C1904.34 175.34 1903.68 174.68 1903 174 C1902.46375 174.350625 1901.9275 174.70125 1901.375 175.0625 C1898.25340583 176.29470823 1896.26494851 175.59968442 1893 175 C1890.28431033 175.05858941 1890.28431033 175.05858941 1888 176 C1886.63979849 177.96758273 1886.63979849 177.96758273 1886 180 C1885.34 180 1884.68 180 1884 180 C1884.33 180.99 1884.66 181.98 1885 183 C1884.360625 183.28875 1883.72125 183.5775 1883.0625 183.875 C1880.84793921 184.82823451 1880.84793921 184.82823451 1880 187 C1876.48539458 187.63262898 1872.99414034 188.000514 1869.4375 188.3125 C1865.48824117 189.10235177 1863.25454329 190.6856581 1860 193 C1857.625 193.75 1857.625 193.75 1856 194 C1856 194.99 1856 195.98 1856 197 C1855.01 197 1854.02 197 1853 197 C1852.67 197.66 1852.34 198.32 1852 199 C1850.35 199 1848.7 199 1847 199 C1847 199.66 1847 200.32 1847 201 C1846.38253906 200.93039063 1845.76507812 200.86078125 1845.12890625 200.7890625 C1838.6287704 200.3735287 1835.19994617 201.54675942 1830.10546875 205.58984375 C1827.7273575 207.18260471 1825.81313801 207.61215026 1823 208 C1823 208.66 1823 209.32 1823 210 C1820.30770412 211.34614794 1818.00625034 211.22610553 1815 211.375 C1809.62286914 211.7267192 1805.05527486 212.67683157 1800.0234375 214.57421875 C1799.35570312 214.71472656 1798.68796875 214.85523438 1798 215 C1797.01 214.34 1796.02 213.68 1795 213 C1795 212.01 1795 211.02 1795 210 C1794.443125 210.2475 1793.88625 210.495 1793.3125 210.75 C1791 211 1791 211 1788.5 209.125 C1787.675 208.42375 1786.85 207.7225 1786 207 C1783.50388011 205.9859513 1782.37408007 205.90647998 1779.75 206.5625 C1776.40590712 207.09451478 1774.15220724 206.38764939 1770.9375 205.48046875 C1768.5861508 204.89737207 1766.41149508 204.84928156 1764 205 C1763.67 205.99 1763.34 206.98 1763 208 C1761.35 208 1759.7 208 1758 208 C1757.34 209.98 1756.68 211.96 1756 214 C1754.68 214 1753.36 214 1752 214 C1752.33 214.99 1752.66 215.98 1753 217 C1747.37129115 219.93161919 1744.22833095 220.2019586 1738 219 C1738 218.34 1738 217.68 1738 217 C1736.8553125 217.2475 1736.8553125 217.2475 1735.6875 217.5 C1733 218 1733 218 1730 218 C1729.34 217.34 1728.68 216.68 1728 216 C1727.01 216 1726.02 216 1725 216 C1723.66018514 215.6937566 1722.32488113 215.36548445 1721 215 C1721 213.68 1721 212.36 1721 211 C1720.34 211 1719.68 211 1719 211 C1719 210.34 1719 209.68 1719 209 C1717.68 208.67 1716.36 208.34 1715 208 C1715 208.66 1715 209.32 1715 210 C1712.36 210 1709.72 210 1707 210 C1707 209.34 1707 208.68 1707 208 C1706.01 208.33 1705.02 208.66 1704 209 C1703.34 208.67 1702.68 208.34 1702 208 C1702 207.34 1702 206.68 1702 206 C1698.4588979 205.91952041 1695.40590348 206.02688472 1692 207 C1691.34 207 1690.68 207 1690 207 C1690 206.34 1690 205.68 1690 205 C1689.45085937 204.8865625 1688.90171875 204.773125 1688.3359375 204.65625 C1685.59061257 203.88498815 1683.19341191 202.73744215 1680.625 201.5 C1675.04406397 198.8661983 1675.04406397 198.8661983 1669 198 C1667.22809091 199.35444301 1667.22809091 199.35444301 1666 201 C1665.34 201 1664.68 201 1664 201 C1664 200.34 1664 199.68 1664 199 C1658.91696314 198.88679144 1658.91696314 198.88679144 1654 200 C1654 200.99 1654 201.98 1654 203 C1653.01 203 1652.02 203 1651 203 C1650.01 201.02 1649.02 199.04 1648 197 C1646.68 197.33 1645.36 197.66 1644 198 C1643.67 196.68 1643.34 195.36 1643 194 C1641.35444301 195.22809091 1641.35444301 195.22809091 1640 197 C1640.22757731 199.16299211 1640.22757731 199.16299211 1641 201 C1640.01 201 1639.02 201 1638 201 C1637.67 200.34 1637.34 199.68 1637 199 C1634.97536745 198.34786708 1634.97536745 198.34786708 1633 198 C1633 197.34 1633 196.68 1633 196 C1631.68 196 1630.36 196 1629 196 C1629 197.65 1629 199.3 1629 201 C1627.824375 201.185625 1627.824375 201.185625 1626.625 201.375 C1623.85942178 201.79117993 1623.85942178 201.79117993 1622 204 C1621.67 202.68 1621.34 201.36 1621 200 C1621 200.66 1621 201.32 1621 202 C1620.34 202 1619.68 202 1619 202 C1618.67 201.01 1618.34 200.02 1618 199 C1613.87750342 196.7513655 1609.59828934 196.46762265 1605 196 C1605.33 194.68 1605.66 193.36 1606 192 C1606.66 192 1607.32 192 1608 192 C1608 192.66 1608 193.32 1608 194 C1609.32 193.67 1610.64 193.34 1612 193 C1611.34 192.01 1610.68 191.02 1610 190 C1609.34 190 1608.68 190 1608 190 C1607.67 188.02 1607.34 186.04 1607 184 C1606.030625 183.855625 1605.06125 183.71125 1604.0625 183.5625 C1601 183 1601 183 1600 182 C1599.2575 182.33 1598.515 182.66 1597.75 183 C1595 184 1595 184 1591 184 C1591.33 183.01 1591.66 182.02 1592 181 C1592.66 180.67 1593.32 180.34 1594 180 C1592.35 179.67 1590.7 179.34 1589 179 C1589 178.34 1589 177.68 1589 177 C1587.35 176.34 1585.7 175.68 1584 175 C1584 173 1584 171 1584 169 C1583.01 169 1582.02 169 1581 169 C1581 168.34 1581 167.68 1581 167 C1579.68 167 1578.36 167 1577 167 C1577 166.34 1577 165.68 1577 165 C1575.54077307 165.11409593 1574.08259402 165.24165544 1572.625 165.375 C1571.81289062 165.44460937 1571.00078125 165.51421875 1570.1640625 165.5859375 C1567.79665809 165.82892588 1567.79665809 165.82892588 1566 168 C1563.3984375 168.4140625 1563.3984375 168.4140625 1560.375 168.625 C1559.37210938 168.69976562 1558.36921875 168.77453125 1557.3359375 168.8515625 C1556.56507812 168.90054688 1555.79421875 168.94953125 1555 169 C1555 169.66 1555 170.32 1555 171 C1554.01 171 1553.02 171 1552 171 C1552 170.34 1552 169.68 1552 169 C1552.66 169 1553.32 169 1554 169 C1554 168.01 1554 167.02 1554 166 C1550.067919 166.75184846 1547.77676838 168.50957854 1544.68359375 170.94140625 C1543 172 1543 172 1540 172 C1540 172.66 1540 173.32 1540 174 C1533.33304963 175.9202046 1526.40488031 175.69679171 1520 173 C1520 172.34 1520 171.68 1520 171 C1519.4225 170.79375 1518.845 170.5875 1518.25 170.375 C1513.14924384 167.25787123 1511.13374771 161.33436927 1509 156 C1504.50094529 156 1504.32809673 156.45498485 1501 159 C1496.36608561 160.89569225 1491.93985556 161.48898046 1487 162 C1487 161.34 1487 160.68 1487 160 C1487.66 159.67 1488.32 159.34 1489 159 C1487.84371094 159.01740234 1487.84371094 159.01740234 1486.6640625 159.03515625 C1485.66117188 159.04417969 1484.65828125 159.05320313 1483.625 159.0625 C1482.62726563 159.07410156 1481.62953125 159.08570313 1480.6015625 159.09765625 C1478 159 1478 159 1476 158 C1476 157.01 1476 156.02 1476 155 C1474.68 154.67 1473.36 154.34 1472 154 C1471.67 154.99 1471.34 155.98 1471 157 C1470.34 157 1469.68 157 1469 157 C1468.67 156.34 1468.34 155.68 1468 155 C1463.42537741 153.80188456 1459.61967708 154.16845813 1455 155 C1454.34 153.68 1453.68 152.36 1453 151 C1449.20031442 150.7018576 1449.20031442 150.7018576 1446.875 152.0625 C1446.25625 152.371875 1445.6375 152.68125 1445 153 C1444.34 152.67 1443.68 152.34 1443 152 C1443 151.34 1443 150.68 1443 150 C1441.52031676 150.14049518 1440.04125484 150.28754826 1438.5625 150.4375 C1437.73878906 150.51871094 1436.91507813 150.59992188 1436.06640625 150.68359375 C1434.01337975 150.78930815 1434.01337975 150.78930815 1433 152 C1433.99 152.66 1434.98 153.32 1436 154 C1434.35 154.33 1432.7 154.66 1431 155 C1431.34786708 156.97536745 1431.34786708 156.97536745 1432 159 C1432.66 159.33 1433.32 159.66 1434 160 C1433.67 160.99 1433.34 161.98 1433 163 C1430.52260646 163.90837763 1428.66420516 164 1426 164 C1423.84971696 164.94978897 1423.84971696 164.94978897 1422 166 C1421.34 164.68 1420.68 163.36 1420 162 C1420.33 161.67 1420.66 161.34 1421 161 C1417.94736336 160.01879536 1416.05263664 160.01879536 1413 161 C1414.485 162.485 1414.485 162.485 1416 164 C1415.34 164.66 1414.68 165.32 1414 166 C1414.66 166.33 1415.32 166.66 1416 167 C1416 166.34 1416 165.68 1416 165 C1417.32 165.33 1418.64 165.66 1420 166 C1419.67 167.32 1419.34 168.64 1419 170 C1418.34 170 1417.68 170 1417 170 C1417 170.66 1417 171.32 1417 172 C1415.02 171.67 1413.04 171.34 1411 171 C1411.185625 171.61875 1411.37125 172.2375 1411.5625 172.875 C1412 175 1412 175 1411 177 C1405.25 177.125 1405.25 177.125 1403 176 C1403 175.34 1403 174.68 1403 174 C1403.66 174 1404.32 174 1405 174 C1405 173.34 1405 172.68 1405 172 C1405.99 171.67 1406.98 171.34 1408 171 C1408.33 170.01 1408.66 169.02 1409 168 C1409.33 167.01 1409.66 166.02 1410 165 C1409.34 164.01 1408.68 163.02 1408 162 C1407.34 162 1406.68 162 1406 162 C1406 161.34 1406 160.68 1406 160 C1402.05272412 159.82057837 1399.4019487 159.90649311 1396 162 C1396.66 162 1397.32 162 1398 162 C1398 162.66 1398 163.32 1398 164 C1393.61764706 166.19117647 1393.61764706 166.19117647 1390.8671875 165.33984375 C1389 164 1389 164 1388.4609375 161.87109375 C1388.43257812 161.06800781 1388.40421875 160.26492187 1388.375 159.4375 C1388.31475263 157.06407953 1388.31475263 157.06407953 1388 155 C1387.34 154.67 1386.68 154.34 1386 154 C1386 154.99 1386 155.98 1386 157 C1384.35 157 1382.7 157 1381 157 C1381 155.68 1381 154.36 1381 153 C1379.68 153.33 1378.36 153.66 1377 154 C1376.62875 153.0409375 1376.62875 153.0409375 1376.25 152.0625 C1375.18550582 149.87506285 1375.18550582 149.87506285 1373.125 149.125 C1370.49561284 148.97033017 1369.31728083 149.80624927 1367 151 C1364.25 151.125 1364.25 151.125 1362 151 C1362.33 152.32 1362.66 153.64 1363 155 C1362.34 155 1361.68 155 1361 155 C1360.34 154.34 1359.68 153.68 1359 153 C1356.57540213 152.16507646 1356.57540213 152.16507646 1354 152 C1352.515 152.99 1352.515 152.99 1351 154 C1350.34 152.35 1349.68 150.7 1349 149 C1347.35 149.33 1345.7 149.66 1344 150 C1344.33 151.65 1344.66 153.3 1345 155 C1340.375 157.125 1340.375 157.125 1337 156 C1336.6278958 154.67696283 1336.29369827 153.34262065 1336 152 C1333.29120665 150.64560332 1330.99066732 150.93498549 1328 151 C1328 151.66 1328 152.32 1328 153 C1327.01 153 1326.02 153 1325 153 C1324.3185177 154.89179203 1324.3185177 154.89179203 1324 157 C1324.66 157.66 1325.32 158.32 1326 159 C1325.6730244 161.61580479 1325.17960932 163.64078137 1324 166 C1326.31 165.67 1328.62 165.34 1331 165 C1331 165.66 1331 166.32 1331 167 C1322.57142857 168.28571429 1322.57142857 168.28571429 1318 167 C1317.896875 166.21625 1317.79375 165.4325 1317.6875 164.625 C1317.22404978 161.66954819 1317.22404978 161.66954819 1314 160 C1313.01 160 1312.02 160 1311 160 C1308.66435067 159.68330179 1306.3306218 159.35179197 1304 159 C1303.896875 158.401875 1303.79375 157.80375 1303.6875 157.1875 C1303.17030653 154.90759282 1303.17030653 154.90759282 1301.375 153.5 C1300.92125 153.005 1300.4675 152.51 1300 152 C1300.3125 149.8125 1300.3125 149.8125 1301 148 C1300.34 147.67 1299.68 147.34 1299 147 C1299.33 146.67 1299.66 146.34 1300 146 C1299.34 145.34 1298.68 144.68 1298 144 C1298.99 143.67 1299.98 143.34 1301 143 C1300.05125 142.731875 1299.1025 142.46375 1298.125 142.1875 C1295 141 1295 141 1293 138 C1292.01 138 1291.02 138 1290 138 C1290.99 138.33 1291.98 138.66 1293 139 C1293 139.66 1293 140.32 1293 141 C1292.34 141 1291.68 141 1291 141 C1290.67 141.99 1290.34 142.98 1290 144 C1287.28368454 143.09456151 1284.65228812 142.07525194 1282 141 C1280.29159719 142.63412443 1279.06546953 143.86906094 1278 146 C1276.906875 145.505 1275.81375 145.01 1274.6875 144.5 C1271.20033755 142.81160094 1271.20033755 142.81160094 1268 143 C1265.99690671 142.68578929 1263.99628664 142.3548954 1262 142 C1261.67 142.99 1261.34 143.98 1261 145 C1260.37351562 144.96519531 1259.74703125 144.93039063 1259.1015625 144.89453125 C1258.28429688 144.86746094 1257.46703125 144.84039062 1256.625 144.8125 C1255.81289062 144.77769531 1255.00078125 144.74289063 1254.1640625 144.70703125 C1253.09285156 144.85205078 1253.09285156 144.85205078 1252 145 C1251.34 145.99 1250.68 146.98 1250 148 C1246.375 148.6875 1246.375 148.6875 1243 149 C1243 148.01 1243 147.02 1243 146 C1238.85906302 145.79029441 1238.85906302 145.79029441 1235 147 C1234.01 145.02 1233.02 143.04 1232 141 C1230.35 141.33 1228.7 141.66 1227 142 C1226.67 143.32 1226.34 144.64 1226 146 C1225.34 146 1224.68 146 1224 146 C1223.896875 144.9275 1223.79375 143.855 1223.6875 142.75 C1223.02599507 139.14179128 1222.42516579 137.63604977 1220 135 C1220.66 135 1221.32 135 1222 135 C1222 134.34 1222 133.68 1222 133 C1221.01 133.33 1220.02 133.66 1219 134 C1218.67 133.34 1218.34 132.68 1218 132 C1214.7 132.33 1211.4 132.66 1208 133 C1208.33 134.65 1208.66 136.3 1209 138 C1208.01 138 1207.02 138 1206 138 C1205.175 138.0825 1204.35 138.165 1203.5 138.25 C1202.675 138.1675 1201.85 138.085 1201 138 C1200.55527344 137.3709375 1200.11054687 136.741875 1199.65234375 136.09375 C1197.61771799 133.51559537 1196.19826557 133.09877865 1193.0625 132.25 C1192.20785156 132.00765625 1191.35320312 131.7653125 1190.47265625 131.515625 C1187.76834647 130.86390698 1187.76834647 130.86390698 1184 131 C1184 130.34 1184 129.68 1184 129 C1183.34 129 1182.68 129 1182 129 C1181.34 128.01 1180.68 127.02 1180 126 C1179.01 125.34 1178.02 124.68 1177 124 C1177 123.01 1177 122.02 1177 121 C1176.67 121.66 1176.34 122.32 1176 123 C1175.34 123 1174.68 123 1174 123 C1174 122.01 1174 121.02 1174 120 C1171.69 120 1169.38 120 1167 120 C1167.061875 120.928125 1167.12375 121.85625 1167.1875 122.8125 C1167 126 1167 126 1165.5 127.875 C1165.005 128.24625 1164.51 128.6175 1164 129 C1163.34 128.67 1162.68 128.34 1162 128 C1158.88742431 128 1156.89234315 128.17361624 1154 129 C1154.33 127.35 1154.66 125.7 1155 124 C1153.35 124 1151.7 124 1150 124 C1150 123.34 1150 122.68 1150 122 C1149.01 122 1148.02 122 1147 122 C1147 121.34 1147 120.68 1147 120 C1148.98 120.33 1150.96 120.66 1153 121 C1150.87638555 116.97630945 1148.56989359 114.76666753 1145 112 C1143.1875 109.75 1143.1875 109.75 1142 108 C1140.515 108.99 1140.515 108.99 1139 110 C1138.67 108.02 1138.34 106.04 1138 104 C1136.35 103.67 1134.7 103.34 1133 103 C1132.67 103.66 1132.34 104.32 1132 105 C1131.34 104.01 1130.68 103.02 1130 102 C1130.66 102 1131.32 102 1132 102 C1131.67 101.34 1131.34 100.68 1131 100 C1130.071875 100.04125 1129.14375 100.0825 1128.1875 100.125 C1125 100 1125 100 1122 98 C1122 98.66 1122 99.32 1122 100 C1120.35 99.67 1118.7 99.34 1117 99 C1116.67 99.66 1116.34 100.32 1116 101 C1115.01 100.67 1114.02 100.34 1113 100 C1112.67 100.33 1112.34 100.66 1112 101 C1111.01 101 1110.02 101 1109 101 C1109 101.99 1109 102.98 1109 104 C1109.66 104 1110.32 104 1111 104 C1111 104.66 1111 105.32 1111 106 C1106.545 106.495 1106.545 106.495 1102 107 C1101.731875 107.804375 1101.46375 108.60875 1101.1875 109.4375 C1100.5996875 110.7059375 1100.5996875 110.7059375 1100 112 C1098.515 112.495 1098.515 112.495 1097 113 C1096.67 112.34 1096.34 111.68 1096 111 C1095.67 112.32 1095.34 113.64 1095 115 C1095.99 115.33 1096.98 115.66 1098 116 C1097.67 117.65 1097.34 119.3 1097 121 C1096.01 121 1095.02 121 1094 121 C1091.67275816 117.50913723 1090.86572141 114.29106676 1089.78125 110.27734375 C1089.13077487 107.83784466 1089.13077487 107.83784466 1087 106 C1079.95744906 103.60819025 1075.93840757 103.63798891 1069 106 C1067.68 106 1066.36 106 1065 106 C1064.54625 105.505 1064.0925 105.01 1063.625 104.5 C1062.00866696 102.66000987 1062.00866696 102.66000987 1059.0625 103.0625 C1055.13926914 102.98243406 1054.66871948 101.66871948 1052 99 C1049.46823091 99.17295995 1049.46823091 99.17295995 1047 100 C1045.68 100 1044.36 100 1043 100 C1041.25 98 1041.25 98 1040 96 C1038.68 96.33 1037.36 96.66 1036 97 C1036 96.34 1036 95.68 1036 95 C1035.01 95 1034.02 95 1033 95 C1033 94.34 1033 93.68 1033 93 C1027.27039044 91.8581561 1021.86594712 90.8495911 1016 91 C1015.34 90.67 1014.68 90.34 1014 90 C1014 90.99 1014 91.98 1014 93 C1012.515 93.495 1012.515 93.495 1011 94 C1011 92.68 1011 91.36 1011 90 C1009.68 90.33 1008.36 90.66 1007 91 C1007 91.99 1007 92.98 1007 94 C1004.97588796 92.98794398 1002.9934065 91.99595882 1001.0625 90.8125 C998.36195419 89.74864862 996.80085566 90.38517803 994 91 C991.1875 90.5625 991.1875 90.5625 989 90 C988.67 90.66 988.34 91.32 988 92 C989.32 92.66 990.64 93.32 992 94 C991 97 991 97 988.9375 98.1875 C988.298125 98.455625 987.65875 98.72375 987 99 C986.34 98.01 985.68 97.02 985 96 C983.700625 96.12375 982.40125 96.2475 981.0625 96.375 C980.33160156 96.44460937 979.60070312 96.51421875 978.84765625 96.5859375 C978.23792969 96.72257812 977.62820313 96.85921875 977 97 C976.67 97.66 976.34 98.32 976 99 C974.68 99 973.36 99 972 99 C972 99.66 972 100.32 972 101 C971.01 101 970.02 101 969 101 C969 100.01 969 99.02 969 98 C968.2575 98.350625 967.515 98.70125 966.75 99.0625 C963.82879218 100.0583663 962.81513699 100.06781058 960 99 C959.34 98.67 958.68 98.34 958 98 C958 98.99 958 99.98 958 101 C957.34 101 956.68 101 956 101 C956 100.34 956 99.68 956 99 C954.35 99.66 952.7 100.32 951 101 C951 100.34 951 99.68 951 99 C950.01 99 949.02 99 948 99 C948.66 99.33 949.32 99.66 950 100 C950 102.64 950 105.28 950 108 C950.66 108 951.32 108 952 108 C952.33 108.99 952.66 109.98 953 111 C951.68 111 950.36 111 949 111 C949 110.34 949 109.68 949 109 C948.236875 109.226875 947.47375 109.45375 946.6875 109.6875 C945.800625 109.790625 944.91375 109.89375 944 110 C942.1875 108.5625 942.1875 108.5625 941 107 C941 107.99 941 108.98 941 110 C938.69 110.33 936.38 110.66 934 111 C934 111.66 934 112.32 934 113 C932.68 113.66 931.36 114.32 930 115 C930 115.66 930 116.32 930 117 C930.66 117.33 931.32 117.66 932 118 C929.03 117.67 926.06 117.34 923 117 C923 117.66 923 118.32 923 119 C923.66 119 924.32 119 925 119 C925 119.66 925 120.32 925 121 C923.35 121.33 921.7 121.66 920 122 C920 122.66 920 123.32 920 124 C920.66 124.33 921.32 124.66 922 125 C922 126.32 922 127.64 922 129 C921.360625 129.12375 920.72125 129.2475 920.0625 129.375 C919.381875 129.58125 918.70125 129.7875 918 130 C917.67 130.66 917.34 131.32 917 132 C914.4375 132.625 914.4375 132.625 912 133 C912.33 133.66 912.66 134.32 913 135 C912.67 135.66 912.34 136.32 912 137 C909.36 137 906.72 137 904 137 C904 137.99 904 138.98 904 140 C902.35 140.33 900.7 140.66 899 141 C898.34 140.01 897.68 139.02 897 138 C898.32 138 899.64 138 901 138 C900.34 135.69 899.68 133.38 899 131 C899 132.32 899 133.64 899 135 C898.360625 135.28875 897.72125 135.5775 897.0625 135.875 C894.84793921 136.82823451 894.84793921 136.82823451 894 139 C893.34 139 892.68 139 892 139 C891.67 139.66 891.34 140.32 891 141 C891 140.34 891 139.68 891 139 C890.34 139 889.68 139 889 139 C889 139.66 889 140.32 889 141 C889 141.99 889 142.98 889 144 C887.68 143.67 886.36 143.34 885 143 C885.33 144.65 885.66 146.3 886 148 C884.35 149.32 882.7 150.64 881 152 C881.33 152.66 881.66 153.32 882 154 C880.906875 153.979375 879.81375 153.95875 878.6875 153.9375 C875.05615809 153.81455548 875.05615809 153.81455548 872 155 C871.67 154.34 871.34 153.68 871 153 C870.74605469 153.63808594 870.49210938 154.27617187 870.23046875 154.93359375 C869.88628906 155.75988281 869.54210937 156.58617187 869.1875 157.4375 C868.68283203 158.67306641 868.68283203 158.67306641 868.16796875 159.93359375 C867 162 867 162 864 163 C863.34 163 862.68 163 862 163 C859.52922456 163.52913952 857.06717429 164.09035149 854.60546875 164.66015625 C851.7145629 165.03723093 849.77943571 164.86885797 847 164 C845.2265625 162.625 845.2265625 162.625 843.625 161 C840.22560605 157.8758305 837.63513731 157.36354018 833 157 C832.34 156.34 831.68 155.68 831 155 C830.030625 155.04125 829.06125 155.0825 828.0625 155.125 C825 155 825 155 823.125 153.125 C822 151 822 151 822 149 C820.35 148.67 818.7 148.34 817 148 C817 147.01 817 146.02 817 145 C815.35 144.67 813.7 144.34 812 144 C812 143.34 812 142.68 812 142 C811.34 141.67 810.68 141.34 810 141 C810 140.34 810 139.68 810 139 C809.34 139 808.68 139 808 139 C808 138.01 808 137.02 808 136 C807.0409375 135.6596875 807.0409375 135.6596875 806.0625 135.3125 C804 134 804 134 802.9375 131.6875 C803 129 803 129 805.4375 126.1875 C806.283125 125.465625 807.12875 124.74375 808 124 C807.34 123.67 806.68 123.34 806 123 C806 122.01 806 121.02 806 120 C805.34 120 804.68 120 804 120 C804 119.01 804 118.02 804 117 C802.35 117.33 800.7 117.66 799 118 C799 117.34 799 116.68 799 116 C797.02463255 116.34786708 797.02463255 116.34786708 795 117 C794.67 117.66 794.34 118.32 794 119 C793.01 119 792.02 119 791 119 C790.67 118.34 790.34 117.68 790 117 C787.97536745 116.34786708 787.97536745 116.34786708 786 116 C786 114.68 786 113.36 786 112 C785.34 111.67 784.68 111.34 784 111 C784 110.01 784 109.02 784 108 C782.02 107.67 780.04 107.34 778 107 C778 107.66 778 108.32 778 109 C777.34 109 776.68 109 776 109 C775.773125 108.360625 775.54625 107.72125 775.3125 107.0625 C774.1609096 104.77893579 774.1609096 104.77893579 771.625 104.1875 C769.05719609 104.00408544 767.41967112 104.19344296 765 105 C763.515 105.495 763.515 105.495 762 106 C761.34 105.67 760.68 105.34 760 105 C759.773125 105.804375 759.54625 106.60875 759.3125 107.4375 C758 110 758 110 755.625 110.9375 C752.76387491 111.00562203 751.39429588 110.50751963 749 109 C747.10786631 111.38573379 745.97608217 113.07175348 745 116 C742.525 115.505 742.525 115.505 740 115 C739.67 116.32 739.34 117.64 739 119 C737.02 119 735.04 119 733 119 C733.33 120.32 733.66 121.64 734 123 C731.33333333 123 728.66666667 123 726 123 C726 124.65 726 126.3 726 128 C725.34 128 724.68 128 724 128 C723.67 128.66 723.34 129.32 723 130 C721.02 129.34 719.04 128.68 717 128 C716.34 128.99 715.68 129.98 715 131 C711.875 132.1875 711.875 132.1875 709 133 C708.34 132.34 707.68 131.68 707 131 C706.3503125 131.7115625 706.3503125 131.7115625 705.6875 132.4375 C704 134 704 134 701 135 C701.33 137.97 701.66 140.94 702 144 C700.68 144 699.36 144 698 144 C697.67 141.36 697.34 138.72 697 136 C693.7 135.01 690.4 134.02 687 133 C686.67 133.99 686.34 134.98 686 136 C685.67 135.01 685.34 134.02 685 133 C684.01 133 683.02 133 682 133 C681.67 133.99 681.34 134.98 681 136 C681.66 136.99 682.32 137.98 683 139 C683.25760279 141.69452521 683.08900053 144.28548375 683 147 C680.36 146.67 677.72 146.34 675 146 C675 146.66 675 147.32 675 148 C671.26512223 147.5020163 669.18762365 147.12508244 666 145 C663.9803613 145 661.96016876 145.00301529 659.94140625 145.0625 C657.55963426 144.98582324 655.97386057 144.31590705 654 143 C653.67 143.99 653.34 144.98 653 146 C652.39671875 145.91621094 651.7934375 145.83242187 651.171875 145.74609375 C650.37265625 145.64425781 649.5734375 145.54242188 648.75 145.4375 C647.96109375 145.33308594 647.1721875 145.22867188 646.359375 145.12109375 C643.99467126 144.99972651 642.2488963 145.30366743 640 146 C640 145.01 640 144.02 640 143 C638.23470405 141.78309467 638.23470405 141.78309467 636 141 C633.95021083 141.77472052 633.95021083 141.77472052 632 143 C630.6757713 143.36784131 629.34386088 143.71202981 628 144 C628 143.01 628 142.02 628 141 C627.34 141 626.68 141 626 141 C626 140.34 626 139.68 626 139 C626.99 139 627.98 139 629 139 C629 138.34 629 137.68 629 137 C625.91483487 137.69360912 625.91483487 137.69360912 624.625 140 C622.5759085 142.52195876 621.15769893 142.65862714 618 143 C618.66 143.66 619.32 144.32 620 145 C618.68 145.33 617.36 145.66 616 146 C616.99 147.32 617.98 148.64 619 150 C617.84826645 152.46800047 616.95216435 154.04783565 615 156 C615 156.99 615 157.98 615 159 C613.39125 159.2165625 613.39125 159.2165625 611.75 159.4375 C607.29449678 160.10582548 604.75141999 160.49905334 601 163 C601 164.32 601 165.64 601 167 C599.43784452 167.16986545 597.8752548 167.33573964 596.3125 167.5 C595.44238281 167.5928125 594.57226562 167.685625 593.67578125 167.78125 C591.10276661 167.99159864 588.58015636 168.03719144 586 168 C586.66 167.67 587.32 167.34 588 167 C588 166.34 588 165.68 588 165 C588.66 165 589.32 165 590 165 C590.33 164.01 590.66 163.02 591 162 C591.66 162 592.32 162 593 162 C593.33 161.01 593.66 160.02 594 159 C594.33 158.01 594.66 157.02 595 156 C594.34 155.01 593.68 154.02 593 153 C592.34 153 591.68 153 591 153 C591 152.34 591 151.68 591 151 C588.08347826 150.83318891 588.08347826 150.83318891 585 151 C582.7763932 152.9254644 582.7763932 152.9254644 582 156 C580.1875 156.8125 580.1875 156.8125 578 157 C575.75 156.0625 575.75 156.0625 574 155 C574.33 153.35 574.66 151.7 575 150 C571.2236068 149.7018576 571.2236068 149.7018576 569 151 C568.67 151.99 568.34 152.98 568 154 C567.01 153.34 566.02 152.68 565 152 C561.61306808 152.34737763 558.96278714 153.35400715 556 155 C556.33 153.68 556.66 152.36 557 151 C556.113125 151.0825 555.22625 151.165 554.3125 151.25 C550.30991841 150.94791837 548.87164566 149.70272533 546 147 C546 147.99 546 148.98 546 150 C544.75 151.75 544.75 151.75 543 153 C540.8125 152.6875 540.8125 152.6875 539 152 C538.34 153.65 537.68 155.3 537 157 C535.68 157 534.36 157 533 157 C533 156.01 533 155.02 533 154 C532.01 154.33 531.02 154.66 530 155 C530 156.32 530 157.64 530 159 C530 162 530 162 529 164 C527.68 163.67 526.36 163.34 525 163 C525 162.34 525 161.68 525 161 C520.71 160.01 516.42 159.02 512 158 C512 158.66 512 159.32 512 160 C510.1875 160.6875 510.1875 160.6875 508 161 C506.25 159.5625 506.25 159.5625 505 158 C505.99 158 506.98 158 508 158 C507.67 156.02 507.34 154.04 507 152 C505.35 151.67 503.7 151.34 502 151 C502.33 151.66 502.66 152.32 503 153 C502.01 153 501.02 153 500 153 C500 153.99 500 154.98 500 156 C499.360625 156.226875 498.72125 156.45375 498.0625 156.6875 C495.72806339 157.85250896 495.72806339 157.85250896 495.25 160.625 C495.1675 161.40875 495.085 162.1925 495 163 C493.35 162.67 491.7 162.34 490 162 C489.67 162.66 489.34 163.32 489 164 C489 163.34 489 162.68 489 162 C488.01 162.33 487.02 162.66 486 163 C485.67 161.35 485.34 159.7 485 158 C484.0925 158.04125 483.185 158.0825 482.25 158.125 C479 158 479 158 477.0859375 156.890625 C475.00748908 155.75944237 475.00748908 155.75944237 472.7109375 156.5390625 C471.94007813 156.89742187 471.16921875 157.25578125 470.375 157.625 C469.21097656 158.13933594 469.21097656 158.13933594 468.0234375 158.6640625 C465.68866465 160.20555345 465.13525826 161.50034878 464 164 C463.34 164.12375 462.68 164.2475 462 164.375 C461.34 164.58125 460.68 164.7875 460 165 C459.71125 165.928125 459.4225 166.85625 459.125 167.8125 C457.6041315 172.12162741 456.05784997 172.93547984 452 175 C449.2857691 175.82771438 446.55703172 176.53270546 443.8046875 177.22265625 C438.06317246 178.81396752 432.85235351 181.55750262 427.5625 184.25 C424 186 424 186 422 186 C422 186.66 422 187.32 422 188 C421.33613281 188.14695313 420.67226563 188.29390625 419.98828125 188.4453125 C413.54241547 190.08265651 410.79829933 191.57385809 407 197 C406.154375 197.825 405.30875 198.65 404.4375 199.5 C401.0647876 202.95919221 398.53271708 206.40184877 397 211 C396.01 211 395.02 211 394 211 C393.67 212.32 393.34 213.64 393 215 C391.989375 214.979375 390.97875 214.95875 389.9375 214.9375 C386.19672743 214.99687734 382.68755102 215.39795085 379 216 C378.67 216.99 378.34 217.98 378 219 C375.56640625 220.1328125 375.56640625 220.1328125 372.5625 221.125 C368.70795033 222.38669537 368.70795033 222.38669537 365 224 C363.50980911 223.72004242 362.03139139 223.3760362 360.5625 223 C354.99986898 221.81147273 349.55521867 221.62274945 344 223 C342.34607212 224.45571583 342.34607212 224.45571583 341 226 C336.46880514 227.21568643 331.98368321 227.02760967 327.33203125 226.96484375 C324.79148916 227.00314338 322.48198656 227.48900277 320 228 C318.65938457 227.69728039 317.32594105 227.36162029 316 227 C314.00036972 226.96154557 311.99948367 226.95455719 310 227 C309.67 227.66 309.34 228.32 309 229 C308.01 229 307.02 229 306 229 C302.51125559 229.43609305 299.33913849 229.88695384 296 231 C295.01 230.67 294.02 230.34 293 230 C293 229.34 293 228.68 293 228 C292.2575 228.309375 291.515 228.61875 290.75 228.9375 C285.96211912 230.78736307 281.36725616 231.31102656 276.26953125 231.71875 C275.14474617 231.81295227 275.14474617 231.81295227 273.99723816 231.90905762 C271.60257088 232.10913783 269.2075703 232.30480864 266.8125 232.5 C263.67303475 232.75872081 260.53375226 233.01958406 257.39453125 233.28125 C256.64607437 233.3429689 255.89761749 233.40468781 255.1264801 233.46827698 C251.27827987 233.79004402 247.44310476 234.15823387 243.609375 234.62109375 C240.12738595 234.98662723 237.39741133 234.784018 234 234 C234 233.34 234 232.68 234 232 C224.1 232.495 224.1 232.495 214 233 C214 232.34 214 231.68 214 231 C212.9275 231.37125 211.855 231.7425 210.75 232.125 C207 233 207 233 204.5625 232.125 C203.7890625 231.568125 203.7890625 231.568125 203 231 C203 231.66 203 232.32 203 233 C202.01 233 201.02 233 200 233 C200 232.34 200 231.68 200 231 C199.01 231 198.02 231 197 231 C196.67 231.66 196.34 232.32 196 233 C195.01 232.34 194.02 231.68 193 231 C192.030625 231.020625 191.06125 231.04125 190.0625 231.0625 C186.59719567 230.9917795 185.49561651 230.30364601 183 228 C182.34 228.99 181.68 229.98 181 231 C178.03 230.01 178.03 230.01 175 229 C175 229.66 175 230.32 175 231 C174.34 231 173.68 231 173 231 C173 231.66 173 232.32 173 233 C169.62719205 232.43786534 167.02404566 231.56079776 164 230 C162.66893378 229.65772583 161.33599921 229.32248257 160 229 C159.67 228.67 159.34 228.34 159 228 C158.67 228.99 158.34 229.98 158 231 C155.03 230.01 155.03 230.01 152 229 C152 228.34 152 227.68 152 227 C151.01 227 150.02 227 149 227 C149 226.34 149 225.68 149 225 C147.35 224.34 145.7 223.68 144 223 C144.66 222.67 145.32 222.34 146 222 C146 221.34 146 220.68 146 220 C144.68 220 143.36 220 142 220 C142 219.34 142 218.68 142 218 C142.66 217.67 143.32 217.34 144 217 C144 216.34 144 215.68 144 215 C143.34 214.67 142.68 214.34 142 214 C142.33 213.34 142.66 212.68 143 212 C142.01 212 141.02 212 140 212 C140.33 213.65 140.66 215.3 141 217 C138.525 217.99 138.525 217.99 136 219 C135.34 217.02 134.68 215.04 134 213 C133.071875 213.350625 132.14375 213.70125 131.1875 214.0625 C128 215 128 215 125 214 C125 213.34 125 212.68 125 212 C123.9275 212.061875 122.855 212.12375 121.75 212.1875 C117.71183983 211.98559199 117.00243069 211.38123813 114 209 C111.79199472 209.21717352 111.79199472 209.21717352 110 210 C110 209.34 110 208.68 110 208 C108.906875 208 107.81375 208 106.6875 208 C104.45833333 208 102.22916667 208 100 208 C100.20496094 207.42765625 100.40992187 206.8553125 100.62109375 206.265625 C101.10019454 203.40089864 100.44588895 202.26525264 99.0625 199.75 C98.68222656 199.04359375 98.30195312 198.3371875 97.91015625 197.609375 C97.45962891 196.81273437 97.45962891 196.81273437 97 196 C96.01 196.33 95.02 196.66 94 197 C93.401875 196.360625 92.80375 195.72125 92.1875 195.0625 C90.09189663 192.79689611 90.09189663 192.79689611 87 192 C87 191.34 87 190.68 87 190 C87.66 190 88.32 190 89 190 C88.67 189.34 88.34 188.68 88 188 C86.02 188.33 84.04 188.66 82 189 C82 188.01 82 187.02 82 186 C80.35 186 78.7 186 77 186 C77.66 185.67 78.32 185.34 79 185 C78.21625 184.030625 77.4325 183.06125 76.625 182.0625 C76.18414062 181.51722656 75.74328125 180.97195312 75.2890625 180.41015625 C74.0333609 178.86733563 74.0333609 178.86733563 72 178 C71.01 178.33 70.02 178.66 69 179 C69 178.34 69 177.68 69 177 C68.34 177.66 67.68 178.32 67 179 C66 180 65 181 64 182 C64 181.01 64 180.02 64 179 C63.34 179 62.68 179 62 179 C62 178.34 62 177.68 62 177 C61.34 177 60.68 177 60 177 C59.67 177.66 59.34 178.32 59 179 C57.63875 178.2265625 57.63875 178.2265625 56.25 177.4375 C53.22210089 175.76123652 53.22210089 175.76123652 50.625 176.3125 C49.820625 176.6528125 49.820625 176.6528125 49 177 C49 177.99 49 178.98 49 180 C45.125 179.125 45.125 179.125 44 178 C43.34 177.67 42.68 177.34 42 177 C41.01 178.32 40.02 179.64 39 181 C38.01 180.67 37.02 180.34 36 180 C36 178.68 36 177.36 36 176 C35.38125 176.20625 34.7625 176.4125 34.125 176.625 C33.42375 176.74875 32.7225 176.8725 32 177 C31.34 176.34 30.68 175.68 30 175 C27.10259761 174.81103897 24.67031132 174.80284961 21.875 175.625 C19.34827616 176.13034477 18.15045266 175.30563197 16 174 C15.01 174.99 15.01 174.99 14 176 C11.6875 175.6875 11.6875 175.6875 9 175 C8.071875 174.814375 7.14375 174.62875 6.1875 174.4375 C5.465625 174.293125 4.74375 174.14875 4 174 C4 173.34 4 172.68 4 172 C3.01 172.33 2.02 172.66 1 173 C0.67 172.67 0.34 172.34 0 172 C0 115.24 0 58.48 0 0 Z " fill="#FEFAF7" transform="translate(0,0)"/>
<path d="M0 0 C1.3410477 0.75733274 2.67269781 1.53132736 4 2.3125 C5.11375 2.95638672 5.11375 2.95638672 6.25 3.61328125 C6.8275 4.07089844 7.405 4.52851562 8 5 C8 5.99 8 6.98 8 8 C7.34 8 6.68 8 6 8 C5.67 8.99 5.34 9.98 5 11 C4.01 10.34 3.02 9.68 2 9 C2.66 7.68 3.32 6.36 4 5 C3.01 5 2.02 5 1 5 C1.33 4.34 1.66 3.68 2 3 C1.01 3 0.02 3 -1 3 C-0.67 2.01 -0.34 1.02 0 0 Z " fill="#FDFEFE" transform="translate(1063,107)"/>
<path d="M0 0 C1.875 0.1875 1.875 0.1875 4 1 C5.25 3.5625 5.25 3.5625 6 6 C4.1875 6.6875 4.1875 6.6875 2 7 C0.1875 5.8125 0.1875 5.8125 -1 4 C-0.6875 1.8125 -0.6875 1.8125 0 0 Z " fill="#FDFCFB" transform="translate(1174,124)"/>
<path d="M0 0 C1.32 0 2.64 0 4 0 C4 0.66 4 1.32 4 2 C3.01 2.495 3.01 2.495 2 3 C1.59270772 5.32156597 1.25561323 7.6568787 1 10 C0.01 9.67 -0.98 9.34 -2 9 C-2.25 3.375 -2.25 3.375 0 0 Z " fill="#FEFEFC" transform="translate(1074,106)"/>
<path d="M0 0 C0.99 0.33 1.98 0.66 3 1 C3.33 2.65 3.66 4.3 4 6 C3.01 6.66 2.02 7.32 1 8 C0.01 7.67 -0.98 7.34 -2 7 C-1.34 4.69 -0.68 2.38 0 0 Z " fill="#FEFDFC" transform="translate(1158,128)"/>
<path d="M0 0 C1.32 0.33 2.64 0.66 4 1 C3.67 2.32 3.34 3.64 3 5 C0.525 4.01 0.525 4.01 -2 3 C-1.34 2.01 -0.68 1.02 0 0 Z " fill="#FDFDFD" transform="translate(1557,175)"/>
<path d="M0 0 C0.66 0 1.32 0 2 0 C2 2.31 2 4.62 2 7 C1.01 7 0.02 7 -1 7 C-1.04254356 5.00045254 -1.04080783 2.99958364 -1 1 C-0.67 0.67 -0.34 0.34 0 0 Z " fill="#FDFDFD" transform="translate(781,109)"/>
<path d="M0 0 C0.33 1.98 0.66 3.96 1 6 C0.34 6 -0.32 6 -1 6 C-1 5.34 -1 4.68 -1 4 C-1.99 4 -2.98 4 -4 4 C-4 3.01 -4 2.02 -4 1 C-2 0 -2 0 0 0 Z " fill="#FDFDFE" transform="translate(1547,173)"/>
<path d="M0 0 C1.65 0.33 3.3 0.66 5 1 C4.34 1.66 3.68 2.32 3 3 C2.34 2.67 1.68 2.34 1 2 C1 2.66 1 3.32 1 4 C-0.65 3.67 -2.3 3.34 -4 3 C-2.68 2.67 -1.36 2.34 0 2 C0 1.34 0 0.68 0 0 Z " fill="#FBFCFC" transform="translate(1426,165)"/>
<path d="M0 0 C0 0.99 0 1.98 0 3 C-1.65 3.33 -3.3 3.66 -5 4 C-5 3.01 -5 2.02 -5 1 C-2 0 -2 0 0 0 Z " fill="#FEFEFE" transform="translate(1031,112)"/>
<path d="M0 0 C1 3 1 3 1 5 C0.01 5 -0.98 5 -2 5 C-2 3.68 -2 2.36 -2 1 C-1.34 0.67 -0.68 0.34 0 0 Z " fill="#FEFEFE" transform="translate(854,172)"/>
<path d="M0 0 C2.97 0.495 2.97 0.495 6 1 C5.67 1.66 5.34 2.32 5 3 C3.35 2.67 1.7 2.34 0 2 C0 1.34 0 0.68 0 0 Z " fill="#FEFDFC" transform="translate(1600,184)"/>
<path d="M0 0 C0.66 0 1.32 0 2 0 C1.67 1.65 1.34 3.3 1 5 C0.34 4.67 -0.32 4.34 -1 4 C-0.67 2.68 -0.34 1.36 0 0 Z " fill="#FDFDFD" transform="translate(920,150)"/>
<path d="M0 0 C0.66 0.33 1.32 0.66 2 1 C0.68 1.99 -0.64 2.98 -2 4 C-2.66 3.34 -3.32 2.68 -4 2 C-2.125 0.9375 -2.125 0.9375 0 0 Z " fill="#FEFCFB" transform="translate(983,96)"/>
<path d="M0 0 C1.65 0 3.3 0 5 0 C5 0.66 5 1.32 5 2 C3.35 2 1.7 2 0 2 C0 1.34 0 0.68 0 0 Z " fill="#FEFEFE" transform="translate(907,169)"/>
<path d="M0 0 C0.99 0 1.98 0 3 0 C2.67 0.99 2.34 1.98 2 3 C1.01 3 0.02 3 -1 3 C-0.67 2.01 -0.34 1.02 0 0 Z " fill="#FFFFFF" transform="translate(710,139)"/>
<path d="M0 0 C0 0.66 0 1.32 0 2 C-1.32 2.33 -2.64 2.66 -4 3 C-4.33 2.34 -4.66 1.68 -5 1 C-3 0 -3 0 0 0 Z " fill="#FEFEFE" transform="translate(794,122)"/>
<path d="M0 0 C0.33 0 0.66 0 1 0 C1 1.65 1 3.3 1 5 C0.01 5 -0.98 5 -2 5 C-1.34 3.35 -0.68 1.7 0 0 Z " fill="#FCFDFD" transform="translate(802,118)"/>
<path d="M0 0 C1.32 0 2.64 0 4 0 C3.67 0.66 3.34 1.32 3 2 C0.9375 2.625 0.9375 2.625 -1 3 C-0.67 2.01 -0.34 1.02 0 0 Z " fill="#FEFEFE" transform="translate(1000,100)"/>
<path d="M0 0 C0.99 0.33 1.98 0.66 3 1 C3 1.66 3 2.32 3 3 C1.68 2.67 0.36 2.34 -1 2 C-0.67 1.34 -0.34 0.68 0 0 Z " fill="#FEFCFB" transform="translate(1413,173)"/>
<path d="M0 0 C2.475 0.495 2.475 0.495 5 1 C4.67 1.66 4.34 2.32 4 3 C2.68 2.67 1.36 2.34 0 2 C0 1.34 0 0.68 0 0 Z " fill="#FEFEFE" transform="translate(885,172)"/>
<path d="M0 0 C0.66 0.33 1.32 0.66 2 1 C2 1.99 2 2.98 2 4 C1.01 3.67 0.02 3.34 -1 3 C-0.67 2.01 -0.34 1.02 0 0 Z " fill="#FFFFFF" transform="translate(817,169)"/>
<path d="M0 0 C1.32 0 2.64 0 4 0 C3 2 3 2 0 4 C0 2.68 0 1.36 0 0 Z " fill="#FDFDFC" transform="translate(1341,159)"/>
<path d="M0 0 C1.32 0.33 2.64 0.66 4 1 C4 1.66 4 2.32 4 3 C3.01 3 2.02 3 1 3 C0.67 2.01 0.34 1.02 0 0 Z " fill="#FDFCFA" transform="translate(899,142)"/>
<path d="M0 0 C0.66 1.32 1.32 2.64 2 4 C0.68 3.34 -0.64 2.68 -2 2 C-1.34 1.34 -0.68 0.68 0 0 Z " fill="#FDFDFD" transform="translate(985,132)"/>
<path d="M0 0 C0.99 0 1.98 0 3 0 C3 0.99 3 1.98 3 3 C2.01 3 1.02 3 0 3 C0 2.01 0 1.02 0 0 Z " fill="#FEFEFE" transform="translate(1071,122)"/>
<path d="M0 0 C0.99 0.33 1.98 0.66 3 1 C3 1.66 3 2.32 3 3 C1.68 3 0.36 3 -1 3 C-0.67 2.01 -0.34 1.02 0 0 Z " fill="#FDFCFA" transform="translate(1168,120)"/>
<path d="M0 0 C0.99 0 1.98 0 3 0 C3 0.99 3 1.98 3 3 C2.01 3 1.02 3 0 3 C0 2.01 0 1.02 0 0 Z " fill="#FEFDFE" transform="translate(767,112)"/>
<path d="M0 0 C2.475 0.99 2.475 0.99 5 2 C4.01 2.33 3.02 2.66 2 3 C1.34 2.67 0.68 2.34 0 2 C0 1.34 0 0.68 0 0 Z " fill="#FFFFFF" transform="translate(1046,107)"/>
<path d="M0 0 C1.32 0 2.64 0 4 0 C3.67 1.32 3.34 2.64 3 4 C2.01 2.68 1.02 1.36 0 0 Z " fill="#FEFEFE" transform="translate(1389,168)"/>
<path d="M0 0 C0.99 0.33 1.98 0.66 3 1 C3 1.66 3 2.32 3 3 C2.01 3 1.02 3 0 3 C0 2.01 0 1.02 0 0 Z " fill="#FEFEFE" transform="translate(1042,123)"/>
<path d="M0 0 C0.66 0 1.32 0 2 0 C2 1.32 2 2.64 2 4 C1.34 4 0.68 4 0 4 C0 2.68 0 1.36 0 0 Z " fill="#FFFFFF" transform="translate(950,116)"/>
<path d="M0 0 C1.485 0.99 1.485 0.99 3 2 C2.67 2.66 2.34 3.32 2 4 C1.34 4 0.68 4 0 4 C0 2.68 0 1.36 0 0 Z " fill="#FDFCFA" transform="translate(951,102)"/>
<path d="M0 0 C0.99 0.33 1.98 0.66 3 1 C2.67 1.66 2.34 2.32 2 3 C1.34 3 0.68 3 0 3 C0 2.01 0 1.02 0 0 Z " fill="#FDFEFD" transform="translate(1783,212)"/>
<path d="M0 0 C0.66 0 1.32 0 2 0 C2 0.99 2 1.98 2 3 C1.01 2.67 0.02 2.34 -1 2 C-0.67 1.34 -0.34 0.68 0 0 Z " fill="#FEFEFE" transform="translate(902,167)"/>
<path d="M0 0 C0.66 0 1.32 0 2 0 C1.67 0.99 1.34 1.98 1 3 C0.34 3 -0.32 3 -1 3 C-0.67 2.01 -0.34 1.02 0 0 Z " fill="#FEFEFC" transform="translate(497,162)"/>
<path d="M0 0 C0.66 0.33 1.32 0.66 2 1 C2 1.66 2 2.32 2 3 C0.68 2.34 -0.64 1.68 -2 1 C-1.34 0.67 -0.68 0.34 0 0 Z " fill="#FDFDFE" transform="translate(499,157)"/>
<path d="M0 0 C0.99 0.33 1.98 0.66 3 1 C2.67 1.66 2.34 2.32 2 3 C1.34 3 0.68 3 0 3 C0 2.01 0 1.02 0 0 Z " fill="#FEFBFB" transform="translate(819,150)"/>
<path d="M0 0 C0.66 0 1.32 0 2 0 C2 0.99 2 1.98 2 3 C1.01 2.67 0.02 2.34 -1 2 C-0.67 1.34 -0.34 0.68 0 0 Z " fill="#FDFDFD" transform="translate(916,145)"/>
<path d="M0 0 C0.99 0.33 1.98 0.66 3 1 C2.67 1.66 2.34 2.32 2 3 C1.34 3 0.68 3 0 3 C0 2.01 0 1.02 0 0 Z " fill="#FEFDFF" transform="translate(888,145)"/>
<path d="M0 0 C1.98 0.99 1.98 0.99 4 2 C3.01 2.33 2.02 2.66 1 3 C0.67 2.01 0.34 1.02 0 0 Z " fill="#FCFBF8" transform="translate(1191,133)"/>
<path d="M0 0 C0.99 0 1.98 0 3 0 C2.67 0.99 2.34 1.98 2 3 C1.34 2.67 0.68 2.34 0 2 C0 1.34 0 0.68 0 0 Z " fill="#FDFDFD" transform="translate(1095,126)"/>
<path d="M0 0 C0.66 0 1.32 0 2 0 C1.67 1.32 1.34 2.64 1 4 C0.67 2.68 0.34 1.36 0 0 Z " fill="#FEFEFC" transform="translate(1150,125)"/>
<path d="M0 0 C0.99 0.33 1.98 0.66 3 1 C3 1.66 3 2.32 3 3 C2.01 2.67 1.02 2.34 0 2 C0 1.34 0 0.68 0 0 Z " fill="#FFFFFF" transform="translate(1020,125)"/>
<path d="M0 0 C0.33 1.32 0.66 2.64 1 4 C0.34 4 -0.32 4 -1 4 C-0.67 2.68 -0.34 1.36 0 0 Z " fill="#FDFBFA" transform="translate(928,119)"/>
<path d="M0 0 C0.99 0.33 1.98 0.66 3 1 C3 1.66 3 2.32 3 3 C2.01 2.67 1.02 2.34 0 2 C0 1.34 0 0.68 0 0 Z " fill="#FEFEFE" transform="translate(1040,117)"/>
<path d="M0 0 C0.66 0 1.32 0 2 0 C2 0.99 2 1.98 2 3 C1.01 2.67 0.02 2.34 -1 2 C-0.67 1.34 -0.34 0.68 0 0 Z " fill="#FEFEFE" transform="translate(1117,112)"/>
<path d="M0 0 C0.99 0.33 1.98 0.66 3 1 C3 1.66 3 2.32 3 3 C2.01 2.67 1.02 2.34 0 2 C0 1.34 0 0.68 0 0 Z " fill="#FEFEFD" transform="translate(962,101)"/>
<path d="M0 0 C0.66 0.66 1.32 1.32 2 2 C1.01 2.33 0.02 2.66 -1 3 C-0.67 2.01 -0.34 1.02 0 0 Z " fill="#FEFDFE" transform="translate(1761,216)"/>
<path d="M0 0 C0.99 0 1.98 0 3 0 C2.67 0.99 2.34 1.98 2 3 C1.34 2.01 0.68 1.02 0 0 Z " fill="#FEFEFC" transform="translate(101,210)"/>
<path d="M0 0 C0.99 0 1.98 0 3 0 C3 0.66 3 1.32 3 2 C2.01 2 1.02 2 0 2 C0 1.34 0 0.68 0 0 Z " fill="#FEFEFE" transform="translate(1597,197)"/>
<path d="M0 0 C0.66 0.33 1.32 0.66 2 1 C2 1.66 2 2.32 2 3 C1.01 2.67 0.02 2.34 -1 2 C-0.67 1.34 -0.34 0.68 0 0 Z " fill="#FDFBFA" transform="translate(1327,162)"/>
<path d="M0 0 C0.99 0 1.98 0 3 0 C3 0.66 3 1.32 3 2 C2.01 2 1.02 2 0 2 C0 1.34 0 0.68 0 0 Z " fill="#FEFEFE" transform="translate(909,163)"/>
<path d="M0 0 C0.99 0 1.98 0 3 0 C3 0.66 3 1.32 3 2 C2.01 2 1.02 2 0 2 C0 1.34 0 0.68 0 0 Z " fill="#FDFCFF" transform="translate(875,158)"/>
<path d="M0 0 C0.66 0 1.32 0 2 0 C1.67 0.99 1.34 1.98 1 3 C0.34 2.34 -0.32 1.68 -1 1 C-0.67 0.67 -0.34 0.34 0 0 Z " fill="#FEFEFE" transform="translate(935,151)"/>
<path d="M0 0 C0.99 0 1.98 0 3 0 C3 0.66 3 1.32 3 2 C2.01 2 1.02 2 0 2 C0 1.34 0 0.68 0 0 Z " fill="#FEFDFC" transform="translate(884,149)"/>
<path d="M0 0 C0.99 0 1.98 0 3 0 C3 0.66 3 1.32 3 2 C2.01 2 1.02 2 0 2 C0 1.34 0 0.68 0 0 Z " fill="#FFFFFF" transform="translate(1217,148)"/>
<path d="M0 0 C0.99 0 1.98 0 3 0 C3 0.66 3 1.32 3 2 C2.01 2 1.02 2 0 2 C0 1.34 0 0.68 0 0 Z " fill="#FEFEFE" transform="translate(901,146)"/>
<path d="M0 0 C0.99 0.33 1.98 0.66 3 1 C2.34 1.66 1.68 2.32 1 3 C0.67 2.01 0.34 1.02 0 0 Z " fill="#FFFFFF" transform="translate(1184,144)"/>
<path d="M0 0 C0.66 0 1.32 0 2 0 C2 0.99 2 1.98 2 3 C1.34 3 0.68 3 0 3 C0 2.01 0 1.02 0 0 Z " fill="#FEFDFB" transform="translate(634,143)"/>
<path d="M0 0 C0.66 0 1.32 0 2 0 C2 0.99 2 1.98 2 3 C1.34 3 0.68 3 0 3 C0 2.01 0 1.02 0 0 Z " fill="#FEFEFE" transform="translate(961,142)"/>
<path d="M0 0 C0.66 0 1.32 0 2 0 C2.33 0.99 2.66 1.98 3 3 C2.01 2.67 1.02 2.34 0 2 C0 1.34 0 0.68 0 0 Z " fill="#FBFCF7" transform="translate(894,139)"/>
<path d="M0 0 C0.99 0 1.98 0 3 0 C3 0.66 3 1.32 3 2 C2.01 2 1.02 2 0 2 C0 1.34 0 0.68 0 0 Z " fill="#FEFEFE" transform="translate(1022,138)"/>
<path d="M0 0 C1.32 0.33 2.64 0.66 4 1 C2.68 1.33 1.36 1.66 0 2 C0 1.34 0 0.68 0 0 Z " fill="#FEFDFD" transform="translate(911,138)"/>
<path d="M0 0 C0.66 0 1.32 0 2 0 C1.67 0.99 1.34 1.98 1 3 C0.34 2.34 -0.32 1.68 -1 1 C-0.67 0.67 -0.34 0.34 0 0 Z " fill="#FDFDFD" transform="translate(1081,128)"/>
<path d="M0 0 C0.66 0 1.32 0 2 0 C2 0.99 2 1.98 2 3 C1.34 3 0.68 3 0 3 C0 2.01 0 1.02 0 0 Z " fill="#FEFEFE" transform="translate(966,121)"/>
<path d="M0 0 C0.99 0 1.98 0 3 0 C3 0.66 3 1.32 3 2 C2.01 2 1.02 2 0 2 C0 1.34 0 0.68 0 0 Z " fill="#FDFDFD" transform="translate(1034,117)"/>
<path d="M0 0 C0.99 0 1.98 0 3 0 C3 0.66 3 1.32 3 2 C2.01 2 1.02 2 0 2 C0 1.34 0 0.68 0 0 Z " fill="#FEFEFE" transform="translate(1040,114)"/>
<path d="M0 0 C0.99 0 1.98 0 3 0 C3 0.66 3 1.32 3 2 C2.01 2 1.02 2 0 2 C0 1.34 0 0.68 0 0 Z " fill="#FFFFFF" transform="translate(952,113)"/>
<path d="M0 0 C0.99 0 1.98 0 3 0 C3 0.66 3 1.32 3 2 C2.01 2 1.02 2 0 2 C0 1.34 0 0.68 0 0 Z " fill="#FDFBFA" transform="translate(1087,112)"/>
<path d="M0 0 C0.99 0 1.98 0 3 0 C3 0.66 3 1.32 3 2 C2.01 2 1.02 2 0 2 C0 1.34 0 0.68 0 0 Z " fill="#FFFDFC" transform="translate(953,108)"/>
<path d="M0 0 C0.99 0.33 1.98 0.66 3 1 C1.68 1.33 0.36 1.66 -1 2 C-0.67 1.34 -0.34 0.68 0 0 Z " fill="#FDFDFB" transform="translate(968,107)"/>
<path d="M0 0 C1.32 0.33 2.64 0.66 4 1 C3.01 1.33 2.02 1.66 1 2 C0.67 1.34 0.34 0.68 0 0 Z " fill="#FEFDFD" transform="translate(1033,99)"/>
<path d="M0 0 C0.66 0 1.32 0 2 0 C1.67 0.99 1.34 1.98 1 3 C0.34 2.34 -0.32 1.68 -1 1 C-0.67 0.67 -0.34 0.34 0 0 Z " fill="#FDFDFD" transform="translate(998,92)"/>
<path d="M0 0 C0.66 0 1.32 0 2 0 C1.67 0.99 1.34 1.98 1 3 C0.67 2.01 0.34 1.02 0 0 Z " fill="#FFFFFF" transform="translate(1656,209)"/>
<path d="M0 0 C0.99 0.33 1.98 0.66 3 1 C2.01 1.33 1.02 1.66 0 2 C0 1.34 0 0.68 0 0 Z " fill="#FFFFFF" transform="translate(1025,175)"/>
<path d="M0 0 C0.66 0.66 1.32 1.32 2 2 C1.01 2 0.02 2 -1 2 C-0.67 1.34 -0.34 0.68 0 0 Z " fill="#FEFEFE" transform="translate(1570,170)"/>
<path d="M0 0 C0.99 0.33 1.98 0.66 3 1 C2.01 1.33 1.02 1.66 0 2 C0 1.34 0 0.68 0 0 Z " fill="#FFFFFF" transform="translate(503,170)"/>
<path d="M0 0 C0.66 0 1.32 0 2 0 C2 0.66 2 1.32 2 2 C1.01 1.67 0.02 1.34 -1 1 C-0.67 0.67 -0.34 0.34 0 0 Z " fill="#FEFEFE" transform="translate(832,161)"/>
<path d="M0 0 C0.99 0 1.98 0 3 0 C3 0.66 3 1.32 3 2 C2.01 1.67 1.02 1.34 0 1 C0 0.67 0 0.34 0 0 Z " fill="#FEFEFE" transform="translate(902,159)"/>
<path d="M0 0 C0.99 0.33 1.98 0.66 3 1 C2.01 1.33 1.02 1.66 0 2 C0 1.34 0 0.68 0 0 Z " fill="#FFFFFD" transform="translate(891,157)"/>
<path d="M0 0 C0.99 0.33 1.98 0.66 3 1 C2.01 1.33 1.02 1.66 0 2 C0 1.34 0 0.68 0 0 Z " fill="#FEFEFE" transform="translate(926,155)"/>
<path d="M0 0 C0.99 0.495 0.99 0.495 2 1 C2 1.66 2 2.32 2 3 C1.34 3 0.68 3 0 3 C0 2.01 0 1.02 0 0 Z " fill="#FCFEFC" transform="translate(1449,152)"/>
<path d="M0 0 C0.66 0 1.32 0 2 0 C2 0.66 2 1.32 2 2 C1.01 1.67 0.02 1.34 -1 1 C-0.67 0.67 -0.34 0.34 0 0 Z " fill="#FEFEFE" transform="translate(941,143)"/>
<path d="M0 0 C0.99 0 1.98 0 3 0 C3 0.66 3 1.32 3 2 C2.01 1.67 1.02 1.34 0 1 C0 0.67 0 0.34 0 0 Z " fill="#FEFEFC" transform="translate(1142,126)"/>
<path d="M0 0 C0.99 0 1.98 0 3 0 C3 0.66 3 1.32 3 2 C2.01 1.67 1.02 1.34 0 1 C0 0.67 0 0.34 0 0 Z " fill="#FEFEFE" transform="translate(961,120)"/>
<path d="M0 0 C0.99 0.495 0.99 0.495 2 1 C2 1.66 2 2.32 2 3 C1.34 3 0.68 3 0 3 C0 2.01 0 1.02 0 0 Z " fill="#FEFEFE" transform="translate(770,118)"/>
<path d="M0 0 C0.66 0 1.32 0 2 0 C2 0.66 2 1.32 2 2 C1.01 1.67 0.02 1.34 -1 1 C-0.67 0.67 -0.34 0.34 0 0 Z " fill="#FEFEFE" transform="translate(1045,115)"/>
<path d="M0 0 C0.66 0 1.32 0 2 0 C1.67 0.99 1.34 1.98 1 3 C0.67 2.01 0.34 1.02 0 0 Z " fill="#FCFCF9" transform="translate(934,113)"/>
<path d="M0 0 C0.99 0.495 0.99 0.495 2 1 C2 1.66 2 2.32 2 3 C1.34 3 0.68 3 0 3 C0 2.01 0 1.02 0 0 Z " fill="#FDFCFD" transform="translate(765,108)"/>
<path d="M0 0 C0.99 0 1.98 0 3 0 C3 0.66 3 1.32 3 2 C2.01 1.67 1.02 1.34 0 1 C0 0.67 0 0.34 0 0 Z " fill="#FCFCFD" transform="translate(958,102)"/>
<path d="M0 0 C0.66 0 1.32 0 2 0 C2 0.66 2 1.32 2 2 C1.01 1.67 0.02 1.34 -1 1 C-0.67 0.67 -0.34 0.34 0 0 Z " fill="#FEFEFE" transform="translate(1016,101)"/>
<path d="M0 0 C0.66 0 1.32 0 2 0 C2 0.66 2 1.32 2 2 C1.34 2 0.68 2 0 2 C0 1.34 0 0.68 0 0 Z " fill="#FFFDFC" transform="translate(1691,208)"/>
<path d="M0 0 C0.66 0 1.32 0 2 0 C2 0.66 2 1.32 2 2 C1.34 2 0.68 2 0 2 C0 1.34 0 0.68 0 0 Z " fill="#FEFEFE" transform="translate(1666,205)"/>
<path d="M0 0 C0.66 0 1.32 0 2 0 C2 0.66 2 1.32 2 2 C1.34 2 0.68 2 0 2 C0 1.34 0 0.68 0 0 Z " fill="#FDFBF9" transform="translate(1609,198)"/>
<path d="M0 0 C0.66 0 1.32 0 2 0 C2 0.66 2 1.32 2 2 C1.34 2 0.68 2 0 2 C0 1.34 0 0.68 0 0 Z " fill="#FCFBFC" transform="translate(1602,196)"/>
<path d="M0 0 C0.66 0 1.32 0 2 0 C2 0.66 2 1.32 2 2 C1.34 2 0.68 2 0 2 C0 1.34 0 0.68 0 0 Z " fill="#FEFEFE" transform="translate(958,179)"/>
<path d="M0 0 C0.66 0.66 1.32 1.32 2 2 C1.01 1.67 0.02 1.34 -1 1 C-0.67 0.67 -0.34 0.34 0 0 Z " fill="#FDFDFD" transform="translate(1559,172)"/>
<path d="M0 0 C1.485 0.99 1.485 0.99 3 2 C2.01 2 1.02 2 0 2 C0 1.34 0 0.68 0 0 Z " fill="#FEFEFD" transform="translate(1398,172)"/>
<path d="M0 0 C0.66 0 1.32 0 2 0 C2 0.66 2 1.32 2 2 C1.34 2 0.68 2 0 2 C0 1.34 0 0.68 0 0 Z " fill="#FEFEFE" transform="translate(899,170)"/>
<path d="M0 0 C0.66 0 1.32 0 2 0 C2 0.66 2 1.32 2 2 C1.34 2 0.68 2 0 2 C0 1.34 0 0.68 0 0 Z " fill="#FEFEFE" transform="translate(886,168)"/>
<path d="M0 0 C0.66 0 1.32 0 2 0 C2 0.66 2 1.32 2 2 C1.34 2 0.68 2 0 2 C0 1.34 0 0.68 0 0 Z " fill="#FFFFFF" transform="translate(890,164)"/>
<path d="M0 0 C0.66 0 1.32 0 2 0 C2 0.66 2 1.32 2 2 C1.34 2 0.68 2 0 2 C0 1.34 0 0.68 0 0 Z " fill="#FFFFFF" transform="translate(925,161)"/>
<path d="M0 0 C0 3 0 3 0 3 Z " fill="#FEFEFE" transform="translate(577,160)"/>
<path d="M0 0 C0.99 0.33 1.98 0.66 3 1 C2.01 1 1.02 1 0 1 C0 0.67 0 0.34 0 0 Z " fill="#FFFFFF" transform="translate(940,159)"/>
<path d="M0 0 C0.66 0 1.32 0 2 0 C2 0.66 2 1.32 2 2 C1.34 2 0.68 2 0 2 C0 1.34 0 0.68 0 0 Z " fill="#FDFDFB" transform="translate(837,158)"/>
<path d="M0 0 C0.66 0 1.32 0 2 0 C2 0.66 2 1.32 2 2 C1.34 2 0.68 2 0 2 C0 1.34 0 0.68 0 0 Z " fill="#FEFEFE" transform="translate(986,156)"/>
<path d="M0 0 C0.66 0 1.32 0 2 0 C2 0.66 2 1.32 2 2 C1.34 2 0.68 2 0 2 C0 1.34 0 0.68 0 0 Z " fill="#FFFFFF" transform="translate(905,154)"/>
<path d="M0 0 C0.66 0 1.32 0 2 0 C2 0.66 2 1.32 2 2 C1.34 2 0.68 2 0 2 C0 1.34 0 0.68 0 0 Z " fill="#FDFBF9" transform="translate(878,154)"/>
<path d="M0 0 C0.66 0 1.32 0 2 0 C2 0.66 2 1.32 2 2 C1.34 2 0.68 2 0 2 C0 1.34 0 0.68 0 0 Z " fill="#FEFEFD" transform="translate(819,154)"/>
<path d="M0 0 C0.66 0 1.32 0 2 0 C2 0.66 2 1.32 2 2 C1.34 2 0.68 2 0 2 C0 1.34 0 0.68 0 0 Z " fill="#FFFFFF" transform="translate(909,153)"/>
<path d="M0 0 C0.66 0 1.32 0 2 0 C2 0.66 2 1.32 2 2 C1.34 2 0.68 2 0 2 C0 1.34 0 0.68 0 0 Z " fill="#FDFCFF" transform="translate(885,152)"/>
<path d="M0 0 C0.66 0 1.32 0 2 0 C2 0.66 2 1.32 2 2 C1.34 2 0.68 2 0 2 C0 1.34 0 0.68 0 0 Z " fill="#FFFFFF" transform="translate(952,145)"/>
<path d="M0 0 C0.66 0 1.32 0 2 0 C2 0.66 2 1.32 2 2 C1.34 2 0.68 2 0 2 C0 1.34 0 0.68 0 0 Z " fill="#FEFEFC" transform="translate(1266,144)"/>
<path d="M0 0 C0.66 0 1.32 0 2 0 C2 0.66 2 1.32 2 2 C1.34 2 0.68 2 0 2 C0 1.34 0 0.68 0 0 Z " fill="#FFFFFF" transform="translate(944,144)"/>
<path d="M0 0 C0.66 0 1.32 0 2 0 C2 0.66 2 1.32 2 2 C1.34 2 0.68 2 0 2 C0 1.34 0 0.68 0 0 Z " fill="#FEFDFE" transform="translate(894,144)"/>
<path d="M0 0 C0 3 0 3 0 3 Z " fill="#FEFDFB" transform="translate(1284,143)"/>
<path d="M0 0 C0.66 0 1.32 0 2 0 C2 0.66 2 1.32 2 2 C1.34 2 0.68 2 0 2 C0 1.34 0 0.68 0 0 Z " fill="#FEFEFD" transform="translate(923,143)"/>
<path d="M0 0 C1 4 1 4 1 4 Z " fill="#FDFCFE" transform="translate(908,140)"/>
<path d="M0 0 C0.66 0 1.32 0 2 0 C2 0.66 2 1.32 2 2 C1.34 2 0.68 2 0 2 C0 1.34 0 0.68 0 0 Z " fill="#FDFDFB" transform="translate(890,143)"/>
<path d="M0 0 C0.66 0 1.32 0 2 0 C2 0.66 2 1.32 2 2 C1.34 2 0.68 2 0 2 C0 1.34 0 0.68 0 0 Z " fill="#FCFBFC" transform="translate(1203,141)"/>
<path d="M0 0 C0.66 0 1.32 0 2 0 C2 0.66 2 1.32 2 2 C1.34 2 0.68 2 0 2 C0 1.34 0 0.68 0 0 Z " fill="#FEFEFE" transform="translate(1066,141)"/>
<path d="M0 0 C0.66 0 1.32 0 2 0 C2 0.66 2 1.32 2 2 C1.34 2 0.68 2 0 2 C0 1.34 0 0.68 0 0 Z " fill="#FFFFFF" transform="translate(1076,140)"/>
<path d="M0 0 C0.66 0 1.32 0 2 0 C2 0.66 2 1.32 2 2 C1.34 2 0.68 2 0 2 C0 1.34 0 0.68 0 0 Z " fill="#FDFDFC" transform="translate(1208,139)"/>
<path d="M0 0 C0.66 0 1.32 0 2 0 C2 0.66 2 1.32 2 2 C1.34 2 0.68 2 0 2 C0 1.34 0 0.68 0 0 Z " fill="#FEFCFB" transform="translate(1211,136)"/>
<path d="M0 0 C0.66 0 1.32 0 2 0 C2 0.66 2 1.32 2 2 C1.34 2 0.68 2 0 2 C0 1.34 0 0.68 0 0 Z " fill="#FFFFFF" transform="translate(745,136)"/>
<path d="M0 0 C0.66 0 1.32 0 2 0 C2 0.66 2 1.32 2 2 C1.34 2 0.68 2 0 2 C0 1.34 0 0.68 0 0 Z " fill="#FDFBF8" transform="translate(1217,134)"/>
<path d="M0 0 C0.66 0 1.32 0 2 0 C2 0.66 2 1.32 2 2 C1.34 2 0.68 2 0 2 C0 1.34 0 0.68 0 0 Z " fill="#FFFFFF" transform="translate(1016,132)"/>
<path d="M0 0 C0.99 0.33 1.98 0.66 3 1 C2.01 1 1.02 1 0 1 C0 0.67 0 0.34 0 0 Z " fill="#FCFAFD" transform="translate(800,131)"/>
<path d="M0 0 C0.66 0 1.32 0 2 0 C2 0.66 2 1.32 2 2 C1.34 2 0.68 2 0 2 C0 1.34 0 0.68 0 0 Z " fill="#FFFFFF" transform="translate(738,128)"/>
<path d="M0 0 C0 3 0 3 0 3 Z " fill="#FEFEFE" transform="translate(1101,126)"/>
<path d="M0 0 C0.66 0 1.32 0 2 0 C2 0.66 2 1.32 2 2 C1.34 2 0.68 2 0 2 C0 1.34 0 0.68 0 0 Z " fill="#FFFFFF" transform="translate(1127,122)"/>
<path d="M0 0 C0.66 0 1.32 0 2 0 C2 0.66 2 1.32 2 2 C1.34 2 0.68 2 0 2 C0 1.34 0 0.68 0 0 Z " fill="#FFFFFF" transform="translate(951,122)"/>
<path d="M0 0 C0.66 0 1.32 0 2 0 C2 0.66 2 1.32 2 2 C1.34 2 0.68 2 0 2 C0 1.34 0 0.68 0 0 Z " fill="#FEFFFF" transform="translate(754,121)"/>
<path d="M0 0 C0.66 0 1.32 0 2 0 C2 0.66 2 1.32 2 2 C1.34 2 0.68 2 0 2 C0 1.34 0 0.68 0 0 Z " fill="#FEFEFE" transform="translate(1035,120)"/>
<path d="M0 0 C0 3 0 3 0 3 Z " fill="#FFFFFF" transform="translate(1064,118)"/>
<path d="M0 0 C0.66 0 1.32 0 2 0 C2 0.66 2 1.32 2 2 C1.34 2 0.68 2 0 2 C0 1.34 0 0.68 0 0 Z " fill="#FFFFFF" transform="translate(1019,119)"/>
<path d="M0 0 C0 3 0 3 0 3 Z " fill="#FFFFFF" transform="translate(1108,116)"/>
<path d="M0 0 C0.66 0 1.32 0 2 0 C2 0.66 2 1.32 2 2 C1.34 2 0.68 2 0 2 C0 1.34 0 0.68 0 0 Z " fill="#FFFFFF" transform="translate(1076,117)"/>
<path d="M0 0 C0.66 0 1.32 0 2 0 C2 0.66 2 1.32 2 2 C1.34 2 0.68 2 0 2 C0 1.34 0 0.68 0 0 Z " fill="#FFFFFF" transform="translate(759,117)"/>
<path d="M0 0 C0.66 0.66 1.32 1.32 2 2 C1.01 2.495 1.01 2.495 0 3 C0 2.01 0 1.02 0 0 Z " fill="#FFFFFF" transform="translate(960,115)"/>
<path d="M0 0 C0.66 0 1.32 0 2 0 C2 0.66 2 1.32 2 2 C1.34 2 0.68 2 0 2 C0 1.34 0 0.68 0 0 Z " fill="#FCFBFC" transform="translate(1001,114)"/>
<path d="M0 0 C0.66 0 1.32 0 2 0 C2 0.66 2 1.32 2 2 C1.34 2 0.68 2 0 2 C0 1.34 0 0.68 0 0 Z " fill="#FFFFFF" transform="translate(948,113)"/>
<path d="M0 0 C0.66 0 1.32 0 2 0 C2 0.66 2 1.32 2 2 C1.34 2 0.68 2 0 2 C0 1.34 0 0.68 0 0 Z " fill="#FEFEFE" transform="translate(761,113)"/>
<path d="M0 0 C0.66 0 1.32 0 2 0 C2 0.66 2 1.32 2 2 C1.34 2 0.68 2 0 2 C0 1.34 0 0.68 0 0 Z " fill="#FCFDFD" transform="translate(775,111)"/>
<path d="M0 0 C0.66 0 1.32 0 2 0 C2 0.66 2 1.32 2 2 C1.34 2 0.68 2 0 2 C0 1.34 0 0.68 0 0 Z " fill="#FEFEFE" transform="translate(1134,106)"/>
<path d="M0 0 C0.66 0.66 1.32 1.32 2 2 C1.01 1.67 0.02 1.34 -1 1 C-0.67 0.67 -0.34 0.34 0 0 Z " fill="#FEFEFC" transform="translate(990,104)"/>
<path d="M0 0 C0.66 0 1.32 0 2 0 C2 0.66 2 1.32 2 2 C1.34 2 0.68 2 0 2 C0 1.34 0 0.68 0 0 Z " fill="#FFFFFF" transform="translate(1053,104)"/>
<path d="M0 0 C0.66 0 1.32 0 2 0 C2 0.66 2 1.32 2 2 C1.34 2 0.68 2 0 2 C0 1.34 0 0.68 0 0 Z " fill="#FCFBFA" transform="translate(1118,102)"/>
<path d="M0 0 C0.66 0 1.32 0 2 0 C2 0.66 2 1.32 2 2 C1.34 2 0.68 2 0 2 C0 1.34 0 0.68 0 0 Z " fill="#FEFEFC" transform="translate(965,100)"/>
<path d="M0 0 C0.66 0 1.32 0 2 0 C2 0.66 2 1.32 2 2 C1.34 2 0.68 2 0 2 C0 1.34 0 0.68 0 0 Z " fill="#FDFDFD" transform="translate(1001,97)"/>
<path d="M0 0 C0.99 0.33 1.98 0.66 3 1 C2.01 1 1.02 1 0 1 C0 0.67 0 0.34 0 0 Z " fill="#FDFDFE" transform="translate(995,95)"/>
<path d="M0 0 C0.66 0 1.32 0 2 0 C1.67 0.66 1.34 1.32 1 2 C0.67 1.34 0.34 0.68 0 0 Z " fill="#FFFFFF" transform="translate(1615,210)"/>
<path d="M0 0 C0.66 0.66 1.32 1.32 2 2 C1.34 2 0.68 2 0 2 C0 1.34 0 0.68 0 0 Z " fill="#FEFEFE" transform="translate(1634,202)"/>
<path d="M0 0 C3 1 3 1 3 1 Z " fill="#FFFFFF" transform="translate(920,198)"/>
<path d="M0 0 C0.99 0.495 0.99 0.495 2 1 C1.01 1.495 1.01 1.495 0 2 C0 1.34 0 0.68 0 0 Z " fill="#FDFDFD" transform="translate(1582,177)"/>
<path d="M0 0 C0.66 0 1.32 0 2 0 C1.67 0.66 1.34 1.32 1 2 C0.67 1.34 0.34 0.68 0 0 Z " fill="#FFFDFC" transform="translate(21,177)"/>
<path d="M0 0 C0.66 0 1.32 0 2 0 C1.67 0.66 1.34 1.32 1 2 C0.67 1.34 0.34 0.68 0 0 Z " fill="#FFFDFC" transform="translate(1893,176)"/>
<path d="M0 0 C0.99 0.495 0.99 0.495 2 1 C1.01 1.495 1.01 1.495 0 2 C0 1.34 0 0.68 0 0 Z " fill="#FDFDFB" transform="translate(1401,176)"/>
<path d="M0 0 C0.99 0.495 0.99 0.495 2 1 C1.01 1.495 1.01 1.495 0 2 C0 1.34 0 0.68 0 0 Z " fill="#FFFDFC" transform="translate(24,176)"/>
<path d="M0 0 C3 1 3 1 3 1 Z " fill="#FFFFFF" transform="translate(935,175)"/>
<path d="M0 0 C0.33 0.66 0.66 1.32 1 2 C0.34 1.67 -0.32 1.34 -1 1 C-0.67 0.67 -0.34 0.34 0 0 Z " fill="#FFFFFF" transform="translate(822,174)"/>
<path d="M0 0 C3 1 3 1 3 1 Z " fill="#FDFCFF" transform="translate(1548,171)"/>
<path d="M0 0 C0.99 0.495 0.99 0.495 2 1 C1.01 1.495 1.01 1.495 0 2 C0 1.34 0 0.68 0 0 Z " fill="#FEFCFB" transform="translate(1556,170)"/>
<path d="M0 0 C0.66 0 1.32 0 2 0 C1.67 0.66 1.34 1.32 1 2 C0.67 1.34 0.34 0.68 0 0 Z " fill="#FFFFFD" transform="translate(509,169)"/>
<path d="M0 0 C0.99 0.495 0.99 0.495 2 1 C1.01 1.495 1.01 1.495 0 2 C0 1.34 0 0.68 0 0 Z " fill="#FFFFFF" transform="translate(829,168)"/>
<path d="M0 0 C3 1 3 1 3 1 Z " fill="#FDFDFD" transform="translate(871,167)"/>
<path d="" fill="#FDFDFD" transform="translate(0,0)"/>
<path d="M0 0 C0.66 0 1.32 0 2 0 C1.67 0.66 1.34 1.32 1 2 C0.67 1.34 0.34 0.68 0 0 Z " fill="#FEFDFE" transform="translate(504,163)"/>
<path d="M0 0 C3 1 3 1 3 1 Z " fill="#FCFBFC" transform="translate(574,159)"/>
<path d="M0 0 C0.99 0.495 0.99 0.495 2 1 C1.01 1.495 1.01 1.495 0 2 C0 1.34 0 0.68 0 0 Z " fill="#FEFDFF" transform="translate(1332,158)"/>
<path d="M0 0 C0.66 0 1.32 0 2 0 C1.67 0.66 1.34 1.32 1 2 C0.67 1.34 0.34 0.68 0 0 Z " fill="#FEFDFE" transform="translate(502,158)"/>
<path d="M0 0 C0.66 0.66 1.32 1.32 2 2 C1.34 2 0.68 2 0 2 C0 1.34 0 0.68 0 0 Z " fill="#FDFCFB" transform="translate(1433,155)"/>
<path d="" fill="#FFFFFF" transform="translate(0,0)"/>
<path d="M0 0 C0.66 0 1.32 0 2 0 C1.67 0.66 1.34 1.32 1 2 C0.67 1.34 0.34 0.68 0 0 Z " fill="#FFFFFF" transform="translate(950,155)"/>
<path d="" fill="#FEFEFE" transform="translate(0,0)"/>
<path d="" fill="#FDFBF8" transform="translate(0,0)"/>
<path d="M0 0 C0.33 0.66 0.66 1.32 1 2 C0.34 1.67 -0.32 1.34 -1 1 C-0.67 0.67 -0.34 0.34 0 0 Z " fill="#FFFAF9" transform="translate(547,149)"/>
<path d="M0 0 C0.66 0.66 1.32 1.32 2 2 C1.34 2 0.68 2 0 2 C0 1.34 0 0.68 0 0 Z " fill="#FFFAF9" transform="translate(618,146)"/>
<path d="" fill="#FFFDFC" transform="translate(0,0)"/>
<path d="M0 0 C3 1 3 1 3 1 Z " fill="#FEFEFE" transform="translate(910,144)"/>
<path d="M0 0 C3 1 3 1 3 1 Z " fill="#FEFEFE" transform="translate(964,140)"/>
<path d="M0 0 C3 1 3 1 3 1 Z " fill="#FEFEFE" transform="translate(951,140)"/>
<path d="M0 0 C0.99 0.495 0.99 0.495 2 1 C1.01 1.495 1.01 1.495 0 2 C0 1.34 0 0.68 0 0 Z " fill="#FEFEFE" transform="translate(918,136)"/>
<path d="M0 0 C3 1 3 1 3 1 Z " fill="#FBFCF9" transform="translate(1187,133)"/>
<path d="M0 0 C0.66 0 1.32 0 2 0 C1.67 0.66 1.34 1.32 1 2 C0.67 1.34 0.34 0.68 0 0 Z " fill="#FEFDFC" transform="translate(1162,131)"/>
<path d="M0 0 C0.66 0.66 1.32 1.32 2 2 C1.34 2 0.68 2 0 2 C0 1.34 0 0.68 0 0 Z " fill="#FDFDFB" transform="translate(1168,125)"/>
<path d="M0 0 C0.66 0 1.32 0 2 0 C1.67 0.66 1.34 1.32 1 2 C0.67 1.34 0.34 0.68 0 0 Z " fill="#FEFEFE" transform="translate(1107,126)"/>
<path d="M0 0 C0.66 0 1.32 0 2 0 C1.67 0.66 1.34 1.32 1 2 C0.67 1.34 0.34 0.68 0 0 Z " fill="#FFFFFF" transform="translate(1018,122)"/>
<path d="M0 0 C0.66 0.66 1.32 1.32 2 2 C1.34 2 0.68 2 0 2 C0 1.34 0 0.68 0 0 Z " fill="#FCFCF9" transform="translate(1101,111)"/>
<path d="M0 0 C0.99 0.495 0.99 0.495 2 1 C1.01 1.495 1.01 1.495 0 2 C0 1.34 0 0.68 0 0 Z " fill="#FEFEFE" transform="translate(1007,112)"/>
<path d="M0 0 C0.66 0.66 1.32 1.32 2 2 C1.34 2 0.68 2 0 2 C0 1.34 0 0.68 0 0 Z " fill="#FEFDFF" transform="translate(1113,109)"/>
<path d="M0 0 C0.33 0.66 0.66 1.32 1 2 C0.34 1.67 -0.32 1.34 -1 1 C-0.67 0.67 -0.34 0.34 0 0 Z " fill="#FDFBF7" transform="translate(941,110)"/>
<path d="M0 0 C0.66 0.66 1.32 1.32 2 2 C1.34 2 0.68 2 0 2 C0 1.34 0 0.68 0 0 Z " fill="#FEFCFB" transform="translate(761,106)"/>
<path d="M0 0 C0.33 0.66 0.66 1.32 1 2 C0.34 1.67 -0.32 1.34 -1 1 C-0.67 0.67 -0.34 0.34 0 0 Z " fill="#FEFEFE" transform="translate(1005,106)"/>
<path d="M0 0 C0.33 0.66 0.66 1.32 1 2 C0.34 1.67 -0.32 1.34 -1 1 C-0.67 0.67 -0.34 0.34 0 0 Z " fill="#FEFEFE" transform="translate(994,101)"/>
<path d="M0 0 C3 1 3 1 3 1 Z " fill="#FFFDFC" transform="translate(978,101)"/>
<path d="M0 0 C0.66 0 1.32 0 2 0 C1.67 0.66 1.34 1.32 1 2 C0.67 1.34 0.34 0.68 0 0 Z " fill="#FEFDFC" transform="translate(1037,99)"/>
<path d="M0 0 C0.66 0 1.32 0 2 0 C1.67 0.66 1.34 1.32 1 2 C0.67 1.34 0.34 0.68 0 0 Z " fill="#FCFBFC" transform="translate(1017,92)"/>
<path d="M0 0 C2 1 2 1 2 1 Z " fill="#FDFBF9" transform="translate(289,229)"/>
<path d="M0 0 C2 1 2 1 2 1 Z " fill="#FDFBF9" transform="translate(1801,215)"/>
<path d="M0 0 C2 1 2 1 2 1 Z " fill="#FFFFFF" transform="translate(1633,214)"/>
<path d="" fill="#FCFFFE" transform="translate(0,0)"/>
<path d="" fill="#FEFEFE" transform="translate(0,0)"/>
<path d="M0 0 C2 1 2 1 2 1 Z " fill="#FEFEFC" transform="translate(1674,202)"/>
<path d="" fill="#FEFEFE" transform="translate(0,0)"/>
<path d="" fill="#FFFFFF" transform="translate(0,0)"/>
<path d="M0 0 C2 1 2 1 2 1 Z " fill="#FEFEFE" transform="translate(1592,190)"/>
<path d="" fill="#FDFBF9" transform="translate(0,0)"/>
<path d="" fill="#FDFBF9" transform="translate(0,0)"/>
<path d="M0 0 C2 1 2 1 2 1 Z " fill="#FFFDFC" transform="translate(1896,177)"/>
<path d="M0 0 C2 1 2 1 2 1 Z " fill="#FFFFFF" transform="translate(880,177)"/>
<path d="M0 0 C2 1 2 1 2 1 Z " fill="#FFFFFF" transform="translate(816,177)"/>
<path d="M0 0 C2 1 2 1 2 1 Z " fill="#FCFCF9" transform="translate(1420,168)"/>
<path d="M0 0 C2 1 2 1 2 1 Z " fill="#FDFDFD" transform="translate(1331,167)"/>
<path d="" fill="#FAFDF9" transform="translate(0,0)"/>
<path d="M0 0 C2 1 2 1 2 1 Z " fill="#FCFBF9" transform="translate(866,163)"/>
<path d="M0 0 C2 1 2 1 2 1 Z " fill="#FFFFFF" transform="translate(813,162)"/>
<path d="M0 0 C2 1 2 1 2 1 Z " fill="#FFFFFF" transform="translate(919,161)"/>
<path d="" fill="#FDFDFD" transform="translate(0,0)"/>
<path d="" fill="#FFFFFF" transform="translate(0,0)"/>
<path d="" fill="#FFFFFF" transform="translate(0,0)"/>
<path d="M0 0 C2 1 2 1 2 1 Z " fill="#FFFFFF" transform="translate(1136,154)"/>
<path d="" fill="#FEFEFE" transform="translate(0,0)"/>
<path d="M0 0 C2 1 2 1 2 1 Z " fill="#FFFFFF" transform="translate(912,152)"/>
<path d="M0 0 C2 1 2 1 2 1 Z " fill="#FDFBF9" transform="translate(1371,150)"/>
<path d="" fill="#FCFBFC" transform="translate(0,0)"/>
<path d="M0 0 C2 1 2 1 2 1 Z " fill="#FEFEFE" transform="translate(938,148)"/>
<path d="M0 0 C2 1 2 1 2 1 Z " fill="#FEFCFB" transform="translate(1293,142)"/>
<path d="M0 0 C2 1 2 1 2 1 Z " fill="#FEFEFE" transform="translate(914,142)"/>
<path d="" fill="#FDFCFE" transform="translate(0,0)"/>
<path d="M0 0 C2 1 2 1 2 1 Z " fill="#FDFCFB" transform="translate(624,142)"/>
<path d="" fill="#FFFFFF" transform="translate(0,0)"/>
<path d="M0 0 C2 1 2 1 2 1 Z " fill="#FDFDFD" transform="translate(911,141)"/>
<path d="M0 0 C2 1 2 1 2 1 Z " fill="#FFFFFE" transform="translate(927,138)"/>
<path d="M0 0 C2 1 2 1 2 1 Z " fill="#FFFFFD" transform="translate(923,138)"/>
<path d="M0 0 C2 1 2 1 2 1 Z " fill="#FDFBFB" transform="translate(1215,136)"/>
<path d="M0 0 C2 1 2 1 2 1 Z " fill="#FFFFFF" transform="translate(970,135)"/>
<path d="" fill="#FEFEFE" transform="translate(0,0)"/>
<path d="M0 0 C2 1 2 1 2 1 Z " fill="#FFFAF9" transform="translate(1213,133)"/>
<path d="M0 0 C2 1 2 1 2 1 Z " fill="#FFFFFF" transform="translate(1020,133)"/>
<path d="" fill="#FEFEFE" transform="translate(0,0)"/>
<path d="M0 0 C2 1 2 1 2 1 Z " fill="#FFFFFF" transform="translate(746,129)"/>
<path d="" fill="#FEFCFB" transform="translate(0,0)"/>
<path d="M0 0 C2 1 2 1 2 1 Z " fill="#FCFCF9" transform="translate(926,127)"/>
<path d="" fill="#FFFFFF" transform="translate(0,0)"/>
<path d="" fill="#FFFEFF" transform="translate(0,0)"/>
<path d="M0 0 C2 1 2 1 2 1 Z " fill="#FFFFFF" transform="translate(964,117)"/>
<path d="M0 0 C2 1 2 1 2 1 Z " fill="#FFFFFD" transform="translate(939,116)"/>
<path d="M0 0 C2 1 2 1 2 1 Z " fill="#FCFBF9" transform="translate(1099,113)"/>
<path d="" fill="#FDFBFA" transform="translate(0,0)"/>
<path d="M0 0 C2 1 2 1 2 1 Z " fill="#FFFFFF" transform="translate(1052,107)"/>
<path d="M0 0 C2 1 2 1 2 1 Z " fill="#FFFEFD" transform="translate(959,107)"/>
<path d="M0 0 C2 1 2 1 2 1 Z " fill="#FFFFFF" transform="translate(1120,106)"/>
<path d="M0 0 C2 1 2 1 2 1 Z " fill="#FFFFFF" transform="translate(965,106)"/>
<path d="M0 0 C2 1 2 1 2 1 Z " fill="#FFFFFF" transform="translate(1036,105)"/>
<path d="" fill="#FFFEFE" transform="translate(0,0)"/>
<path d="" fill="#FDFCFC" transform="translate(0,0)"/>
<path d="M0 0 C2 1 2 1 2 1 Z " fill="#FEFEFE" transform="translate(1010,97)"/>
<path d="" fill="#FFFDFC" transform="translate(0,0)"/>
<path d="" fill="#FCFCF9" transform="translate(0,0)"/>
<path d="" fill="#FDFBF7" transform="translate(0,0)"/>
<path d="" fill="#FFFFFF" transform="translate(0,0)"/>
<path d="" fill="#FCFCF9" transform="translate(0,0)"/>
<path d="" fill="#FDFBF9" transform="translate(0,0)"/>
<path d="" fill="#FDFBF9" transform="translate(0,0)"/>
<path d="" fill="#FFFAF9" transform="translate(0,0)"/>
<path d="" fill="#FFFAF9" transform="translate(0,0)"/>
<path d="" fill="#FEFEFE" transform="translate(0,0)"/>
<path d="" fill="#FEFCFB" transform="translate(0,0)"/>
<path d="" fill="#FDFBF9" transform="translate(0,0)"/>
<path d="" fill="#FEFCFB" transform="translate(0,0)"/>
<path d="" fill="#FCFBFC" transform="translate(0,0)"/>
<path d="" fill="#FDFBF9" transform="translate(0,0)"/>
<path d="" fill="#FCFBFC" transform="translate(0,0)"/>
<path d="" fill="#FDFBF9" transform="translate(0,0)"/>
<path d="" fill="#FFFBF7" transform="translate(0,0)"/>
<path d="" fill="#FDFBF9" transform="translate(0,0)"/>
<path d="" fill="#FCFCF9" transform="translate(0,0)"/>
<path d="" fill="#FDFBF9" transform="translate(0,0)"/>
<path d="" fill="#FDFBF7" transform="translate(0,0)"/>
<path d="" fill="#FDFBF7" transform="translate(0,0)"/>
<path d="" fill="#FCFCF9" transform="translate(0,0)"/>
<path d="" fill="#FEFEFC" transform="translate(0,0)"/>
<path d="" fill="#FFFFFF" transform="translate(0,0)"/>
<path d="" fill="#FFFDFC" transform="translate(0,0)"/>
<path d="" fill="#FCFCF9" transform="translate(0,0)"/>
<path d="" fill="#FEFEFC" transform="translate(0,0)"/>
<path d="" fill="#FEFCFB" transform="translate(0,0)"/>
<path d="" fill="#FCFCF9" transform="translate(0,0)"/>
<path d="" fill="#FCFCF9" transform="translate(0,0)"/>
<path d="" fill="#FCFCF9" transform="translate(0,0)"/>
<path d="" fill="#FFFFFF" transform="translate(0,0)"/>
<path d="" fill="#FFFAF9" transform="translate(0,0)"/>
<path d="" fill="#FEFDF9" transform="translate(0,0)"/>
<path d="" fill="#FFFDFC" transform="translate(0,0)"/>
<path d="" fill="#FEFEFE" transform="translate(0,0)"/>
<path d="" fill="#FFFFFF" transform="translate(0,0)"/>
<path d="" fill="#FFFFFF" transform="translate(0,0)"/>
<path d="" fill="#FFFFFD" transform="translate(0,0)"/>
<path d="" fill="#FEFEFC" transform="translate(0,0)"/>
<path d="" fill="#FDFDFB" transform="translate(0,0)"/>
<path d="" fill="#FFFDFC" transform="translate(0,0)"/>
<path d="" fill="#FDFDFD" transform="translate(0,0)"/>
<path d="" fill="#FDFBFC" transform="translate(0,0)"/>
<path d="" fill="#FEFEFE" transform="translate(0,0)"/>
<path d="" fill="#FDFDFD" transform="translate(0,0)"/>
<path d="" fill="#FEFEFE" transform="translate(0,0)"/>
<path d="" fill="#FFFFFF" transform="translate(0,0)"/>
<path d="" fill="#FDFBF9" transform="translate(0,0)"/>
<path d="" fill="#FEFEFE" transform="translate(0,0)"/>
<path d="" fill="#FFFEFF" transform="translate(0,0)"/>
<path d="" fill="#FFFDFC" transform="translate(0,0)"/>
<path d="" fill="#FDFBF9" transform="translate(0,0)"/>
<path d="" fill="#FDFDFB" transform="translate(0,0)"/>
<path d="" fill="#FDFBF9" transform="translate(0,0)"/>
<path d="" fill="#FBFEFB" transform="translate(0,0)"/>
<path d="" fill="#FDFBF7" transform="translate(0,0)"/>
<path d="" fill="#FFFFFD" transform="translate(0,0)"/>
<path d="" fill="#FCFCF9" transform="translate(0,0)"/>
<path d="" fill="#FDFBF7" transform="translate(0,0)"/>
<path d="" fill="#FDFBF9" transform="translate(0,0)"/>
<path d="" fill="#FFFBF7" transform="translate(0,0)"/>
<path d="" fill="#FFFFFF" transform="translate(0,0)"/>
<path d="" fill="#FEFEFE" transform="translate(0,0)"/>
<path d="" fill="#FDFDFD" transform="translate(0,0)"/>
<path d="" fill="#FEFEFE" transform="translate(0,0)"/>
<path d="" fill="#FEFEFC" transform="translate(0,0)"/>
<path d="" fill="#FFFFFF" transform="translate(0,0)"/>
<path d="" fill="#FFFFFF" transform="translate(0,0)"/>
<path d="" fill="#FDFBFC" transform="translate(0,0)"/>
<path d="" fill="#FEFCFB" transform="translate(0,0)"/>
<path d="" fill="#FDFBF9" transform="translate(0,0)"/>
<path d="" fill="#FEFCFB" transform="translate(0,0)"/>
<path d="" fill="#FEFCFB" transform="translate(0,0)"/>
<path d="" fill="#FEFCFB" transform="translate(0,0)"/>
<path d="" fill="#FFFFFF" transform="translate(0,0)"/>
<path d="" fill="#FEFCFB" transform="translate(0,0)"/>
<path d="" fill="#FDFBF9" transform="translate(0,0)"/>
<path d="" fill="#FFFFFF" transform="translate(0,0)"/>
<path d="" fill="#FFFFFF" transform="translate(0,0)"/>
<path d="" fill="#FEFEFE" transform="translate(0,0)"/>
<path d="" fill="#FFFFFF" transform="translate(0,0)"/>
<path d="" fill="#FDFBF9" transform="translate(0,0)"/>
<path d="" fill="#FEFEFE" transform="translate(0,0)"/>
<path d="" fill="#FEFEFE" transform="translate(0,0)"/>
<path d="" fill="#FEFCFB" transform="translate(0,0)"/>
<path d="" fill="#FDFFFF" transform="translate(0,0)"/>
<path d="" fill="#FDFBF9" transform="translate(0,0)"/>
<path d="" fill="#FEFCFD" transform="translate(0,0)"/>
<path d="" fill="#FFFFFF" transform="translate(0,0)"/>
<path d="" fill="#FFFFFF" transform="translate(0,0)"/>
<path d="" fill="#FFFDFE" transform="translate(0,0)"/>
<path d="" fill="#FFFDFC" transform="translate(0,0)"/>
<path d="" fill="#FFFBF7" transform="translate(0,0)"/>
<path d="" fill="#FDFDFD" transform="translate(0,0)"/>
<path d="" fill="#FFFBF7" transform="translate(0,0)"/>
<path d="" fill="#FDFBF9" transform="translate(0,0)"/>
<path d="" fill="#FFFFFF" transform="translate(0,0)"/>
<path d="" fill="#FDFBF7" transform="translate(0,0)"/>
</svg>
